<svg xmlns="http://www.w3.org/2000/svg" xmlns:xlink="http://www.w3.org/1999/xlink" width="960" height="839.85"><rect width="960" height="839.85" rx="5" ry="5" class="a"/><svg y="0%" x="0%"><circle cx="20" cy="20" r="6" fill="#ff5f58"/><circle cx="40" cy="20" r="6" fill="#ffbd2e"/><circle cx="60" cy="20" r="6" fill="#18c132"/></svg><svg height="759.85" viewBox="0 0 90 75.985" width="900" x="25" xmlns="http://www.w3.org/2000/svg" xmlns:xlink="http://www.w3.org/1999/xlink" y="60"><style>@keyframes q{0%{transform:translateX(0)}95.1%{transform:translateX(-90px)}95.7%{transform:translateX(-180px)}95.8%{transform:translateX(-270px)}95.9%{transform:translateX(-360px)}96.5%{transform:translateX(-450px)}96.6%{transform:translateX(-540px)}96.9%{transform:translateX(-630px)}97%{transform:translateX(-720px)}99.5%{transform:translateX(-900px)}99.6%{transform:translateX(-990px)}99.8%{transform:translateX(-1260px)}to{transform:translateX(-1440px)}}.a{fill:#282d35}.f,.g{fill:#66c2cd}.f{white-space:pre}.g{font-weight:700}.g,.h,.i,.j,.k{white-space:pre}.h{fill:#b9bfca;font-weight:700}.i,.j,.k{fill:#b9c0cb}.j,.k{fill:#dbab79}.k{font-weight:700}.l{fill:#a8cc8c}.l,.m,.n,.o{white-space:pre}.m{fill:#b9c0cb;font-weight:700}.n,.o{fill:#e88388}.o{font-weight:700}</style><g font-family="Monaco,Consolas,Menlo,'Bitstream Vera Sans Mono','Powerline Symbols',monospace" font-size="1.67"><defs><symbol id="1"><text y="1.67" class="f">──────────────────────────────────────</text><text x="39.078" y="1.67" class="g">SWARM</text><text x="45.09" y="1.67" class="g">AGENCY</text><text x="52.104" y="1.67" class="f">──────────────────────────────────────</text></symbol><symbol id="2"><text y="1.67" class="f">╭───────────────────────────────────────</text><text x="41.082" y="1.67" class="g">QUESTION</text><text x="50.1" y="1.67" class="f">───────────────────────────────────────╮</text></symbol><symbol id="3"><text y="1.67" class="f">│</text><text x="89.178" y="1.67" class="f">│</text></symbol><symbol id="4"><text y="1.67" class="f">│</text><text x="4.008" y="1.67" class="h">Should</text><text x="11.022" y="1.67" class="h">we</text><text x="14.028" y="1.67" class="h">pivot</text><text x="20.04" y="1.67" class="h">from</text><text x="25.05" y="1.67" class="h">B2C</text><text x="29.058" y="1.67" class="h">to</text><text x="32.064" y="1.67" class="h">B2B?</text><text x="89.178" y="1.67" class="f">│</text></symbol><symbol id="5"><text y="1.67" class="f">╰──────────────────────────</text><text x="28.056" y="1.67" class="f">5</text><text x="30.06" y="1.67" class="f">agents</text><text x="37.074" y="1.67" class="f">·</text><text x="39.078" y="1.67" class="f">5</text><text x="41.082" y="1.67" class="f">models</text><text x="48.096" y="1.67" class="f">·</text><text x="50.1" y="1.67" class="f">Demo</text><text x="55.11" y="1.67" class="f">·</text><text x="57.114" y="1.67" class="f">4.1s</text><text x="62.124" y="1.67" class="f">───────────────────────────╯</text></symbol><symbol id="6"><text x="2.004" y="1.67" class="i">Context:</text><text x="11.022" y="1.67" class="i">B2C</text><text x="15.03" y="1.67" class="i">growth</text><text x="22.044" y="1.67" class="i">flat</text><text x="27.054" y="1.67" class="i">at</text><text x="30.06" y="1.67" class="i">12k</text><text x="34.068" y="1.67" class="i">MAU</text><text x="38.076" y="1.67" class="i">for</text><text x="42.084" y="1.67" class="g">6</text><text x="44.088" y="1.67" class="i">months.</text><text x="52.104" y="1.67" class="i">Enterprise</text><text x="63.126" y="1.67" class="i">inbound</text><text x="71.142" y="1.67" class="i">up</text><text x="74.148" y="1.67" class="i">3x.</text><text x="78.156" y="1.67" class="i">Team</text><text x="83.166" y="1.67" class="i">of</text><text x="86.172" y="1.67" class="g">8</text><text x="87.174" y="1.67" class="i">.</text></symbol><symbol id="7"><text y="1.67" class="g">14</text><text x="3.006" y="1.67" class="i">months</text><text x="10.02" y="1.67" class="i">runway.</text></symbol><symbol id="8"><text y="1.67" class="j">╭────────────────────────────────────────────────────────────────────────────────────────╮</text></symbol><symbol id="9"><text y="1.67" class="j">│</text><text x="34.068" y="1.67" class="k">📊</text><text x="38.076" y="1.67" class="k">MAJORITY:</text><text x="48.096" y="1.67" class="k">APPROVE</text><text x="89.178" y="1.67" class="j">│</text></symbol><symbol id="10"><text y="1.67" class="j">╰────────────────────────────────────────────────────────────────────────────────────────╯</text></symbol><symbol id="11"><text x="2.004" y="1.67" class="i">Confidence:</text><text x="14.028" y="1.67" class="l">█████████████████████████████</text><text x="43.086" y="1.67" class="i">░░░░░░░░░░░</text><text x="55.11" y="1.67" class="g">74</text><text x="57.114" y="1.67" class="m">%</text></symbol><symbol id="12"><text x="2.004" y="1.67" class="m">Summary:</text><text x="11.022" y="1.67" class="i">Strategy</text><text x="20.04" y="1.67" class="i">department</text><text x="31.062" y="1.67" class="i">recommends</text><text x="42.084" y="1.67" class="i">pivot</text><text x="48.096" y="1.67" class="i">with</text><text x="53.106" y="1.67" class="i">conditions.</text><text x="65.13" y="1.67" class="g">3</text><text x="67.134" y="1.67" class="i">approve</text><text x="75.15" y="1.67" class="m">(</text><text x="76.152" y="1.67" class="i">Visionary,</text></symbol><symbol id="13"><text y="1.67" class="i">GrowthHacker,</text><text x="14.028" y="1.67" class="i">Pragmatist</text><text x="24.048" y="1.67" class="m">)</text><text x="25.05" y="1.67" class="i">,</text><text x="27.054" y="1.67" class="g">1</text><text x="29.058" y="1.67" class="i">rejects</text><text x="37.074" y="1.67" class="m">(</text><text x="38.076" y="1.67" class="i">DevilsAdvocate</text><text x="53.106" y="1.67" class="i">citing</text><text x="60.12" y="1.67" class="i">execution</text><text x="70.14" y="1.67" class="i">risk</text><text x="74.148" y="1.67" class="m">)</text><text x="75.15" y="1.67" class="i">,</text><text x="77.154" y="1.67" class="g">1</text><text x="79.158" y="1.67" class="i">neutral</text></symbol><symbol id="14"><text y="1.67" class="m">(</text><text x="1.002" y="1.67" class="i">NumbersCruncher</text><text x="17.034" y="1.67" class="i">wanting</text><text x="25.05" y="1.67" class="i">data</text><text x="29.058" y="1.67" class="m">)</text><text x="30.06" y="1.67" class="i">.</text><text x="32.064" y="1.67" class="i">Recommended:</text><text x="45.09" y="1.67" class="g">90</text><text x="47.094" y="1.67" class="i">-day</text><text x="52.104" y="1.67" class="i">hybrid</text><text x="59.118" y="1.67" class="i">pilot</text><text x="65.13" y="1.67" class="i">before</text><text x="72.144" y="1.67" class="i">full</text><text x="77.154" y="1.67" class="i">commitment.</text></symbol><symbol id="15"><text y="1.67" class="l">───────────────────────────────────────</text><text x="40.08" y="1.67" class="m">VOTE</text><text x="45.09" y="1.67" class="m">TALLY</text><text x="51.102" y="1.67" class="l">───────────────────────────────────────</text></symbol><symbol id="16"><text y="1.67" class="i">╭──────────────────────┬────────┬───────┬────────────────────────────────────────────────╮</text></symbol><symbol id="17"><text y="1.67" class="i">│</text><text x="2.004" y="1.67" class="m">Agent</text><text x="23.046" y="1.67" class="i">│</text><text x="26.052" y="1.67" class="m">Vote</text><text x="32.064" y="1.67" class="i">│</text><text x="35.07" y="1.67" class="m">Conf</text><text x="40.08" y="1.67" class="i">│</text><text x="42.084" y="1.67" class="m">Reasoning</text><text x="89.178" y="1.67" class="i">│</text></symbol><symbol id="18"><text y="1.67" class="i">├──────────────────────┼────────┼───────┼────────────────────────────────────────────────┤</text></symbol><symbol id="19"><text y="1.67" class="i">│</text><text x="2.004" y="1.67" class="g">Visionary</text><text x="23.046" y="1.67" class="i">│</text><text x="26.052" y="1.67" class="l">YES</text><text x="32.064" y="1.67" class="i">│</text><text x="36.072" y="1.67" class="l">88%</text><text x="40.08" y="1.67" class="i">│</text><text x="42.084" y="1.67" class="i">B2B</text><text x="46.092" y="1.67" class="i">creates</text><text x="54.108" y="1.67" class="i">defensible</text><text x="65.13" y="1.67" class="i">revenue.</text><text x="74.148" y="1.67" class="i">Enterprise</text><text x="89.178" y="1.67" class="i">│</text></symbol><symbol id="20"><text y="1.67" class="i">│</text><text x="23.046" y="1.67" class="i">│</text><text x="32.064" y="1.67" class="i">│</text><text x="40.08" y="1.67" class="i">│</text><text x="42.084" y="1.67" class="i">contracts</text><text x="52.104" y="1.67" class="i">=</text><text x="54.108" y="1.67" class="i">predictable</text><text x="66.132" y="1.67" class="i">ARR.</text><text x="71.142" y="1.67" class="i">B2C</text><text x="75.15" y="1.67" class="i">is</text><text x="78.156" y="1.67" class="i">a</text><text x="80.16" y="1.67" class="i">war</text><text x="84.168" y="1.67" class="i">of</text><text x="89.178" y="1.67" class="i">│</text></symbol><symbol id="21"><text y="1.67" class="i">│</text><text x="23.046" y="1.67" class="i">│</text><text x="32.064" y="1.67" class="i">│</text><text x="40.08" y="1.67" class="i">│</text><text x="42.084" y="1.67" class="i">attrition</text><text x="52.104" y="1.67" class="i">we</text><text x="55.11" y="1.67" class="i">can&apos;t</text><text x="61.122" y="1.67" class="i">win</text><text x="65.13" y="1.67" class="i">at</text><text x="68.136" y="1.67" class="i">thi...</text><text x="89.178" y="1.67" class="i">│</text></symbol><symbol id="22"><text y="1.67" class="i">│</text><text x="2.004" y="1.67" class="g">DevilsAdvocate</text><text x="23.046" y="1.67" class="i">│</text><text x="27.054" y="1.67" class="n">NO</text><text x="32.064" y="1.67" class="i">│</text><text x="36.072" y="1.67" class="l">76%</text><text x="40.08" y="1.67" class="i">│</text><text x="42.084" y="1.67" class="i">Pivots</text><text x="49.098" y="1.67" class="i">kill</text><text x="54.108" y="1.67" class="i">startups</text><text x="63.126" y="1.67" class="i">more</text><text x="68.136" y="1.67" class="i">often</text><text x="74.148" y="1.67" class="i">than</text><text x="79.158" y="1.67" class="i">they</text><text x="84.168" y="1.67" class="i">save</text><text x="89.178" y="1.67" class="i">│</text></symbol><symbol id="23"><text y="1.67" class="i">│</text><text x="23.046" y="1.67" class="i">│</text><text x="32.064" y="1.67" class="i">│</text><text x="40.08" y="1.67" class="i">│</text><text x="42.084" y="1.67" class="i">them.</text><text x="48.096" y="1.67" class="i">We</text><text x="51.102" y="1.67" class="i">have</text><text x="56.112" y="1.67" class="i">no</text><text x="59.118" y="1.67" class="i">enterprise</text><text x="70.14" y="1.67" class="i">sales</text><text x="76.152" y="1.67" class="i">motion,</text><text x="84.168" y="1.67" class="i">no</text><text x="89.178" y="1.67" class="i">│</text></symbol><symbol id="24"><text y="1.67" class="i">│</text><text x="23.046" y="1.67" class="i">│</text><text x="32.064" y="1.67" class="i">│</text><text x="40.08" y="1.67" class="i">│</text><text x="42.084" y="1.67" class="i">SOC</text><text x="46.092" y="1.67" class="i">2,</text><text x="49.098" y="1.67" class="i">no</text><text x="52.104" y="1.67" class="i">SLAs.</text><text x="58.116" y="1.67" class="i">We&apos;d</text><text x="63.126" y="1.67" class="i">be</text><text x="66.132" y="1.67" class="i">s...</text><text x="89.178" y="1.67" class="i">│</text></symbol><symbol id="25"><text y="1.67" class="i">│</text><text x="2.004" y="1.67" class="g">GrowthHacker</text><text x="23.046" y="1.67" class="i">│</text><text x="26.052" y="1.67" class="l">YES</text><text x="32.064" y="1.67" class="i">│</text><text x="36.072" y="1.67" class="l">72%</text><text x="40.08" y="1.67" class="i">│</text><text x="42.084" y="1.67" class="i">B2B</text><text x="46.092" y="1.67" class="i">ACV</text><text x="50.1" y="1.67" class="i">of</text><text x="53.106" y="1.67" class="i">$24k</text><text x="58.116" y="1.67" class="i">vs</text><text x="61.122" y="1.67" class="i">B2C</text><text x="65.13" y="1.67" class="i">LTV</text><text x="69.138" y="1.67" class="i">of</text><text x="72.144" y="1.67" class="i">$180.</text><text x="78.156" y="1.67" class="i">The</text><text x="82.164" y="1.67" class="i">math</text><text x="89.178" y="1.67" class="i">│</text></symbol><symbol id="26"><text y="1.67" class="i">│</text><text x="23.046" y="1.67" class="i">│</text><text x="32.064" y="1.67" class="i">│</text><text x="40.08" y="1.67" class="i">│</text><text x="42.084" y="1.67" class="i">is</text><text x="45.09" y="1.67" class="i">obvious.</text><text x="54.108" y="1.67" class="i">50</text><text x="57.114" y="1.67" class="i">enterprise</text><text x="68.136" y="1.67" class="i">customers</text><text x="78.156" y="1.67" class="i">=</text><text x="80.16" y="1.67" class="i">$1.2M</text><text x="89.178" y="1.67" class="i">│</text></symbol><symbol id="27"><text y="1.67" class="i">│</text><text x="23.046" y="1.67" class="i">│</text><text x="32.064" y="1.67" class="i">│</text><text x="40.08" y="1.67" class="i">│</text><text x="42.084" y="1.67" class="i">ARR.</text><text x="47.094" y="1.67" class="i">We</text><text x="50.1" y="1.67" class="i">need</text><text x="55.11" y="1.67" class="i">6,700</text><text x="61.122" y="1.67" class="i">B2C</text><text x="65.13" y="1.67" class="i">users...</text><text x="89.178" y="1.67" class="i">│</text></symbol><symbol id="28"><text y="1.67" class="i">│</text><text x="2.004" y="1.67" class="g">NumbersCruncher</text><text x="23.046" y="1.67" class="i">│</text><text x="25.05" y="1.67" class="j">MAYBE</text><text x="32.064" y="1.67" class="i">│</text><text x="36.072" y="1.67" class="j">41%</text><text x="40.08" y="1.67" class="i">│</text><text x="42.084" y="1.67" class="i">The</text><text x="46.092" y="1.67" class="i">unit</text><text x="51.102" y="1.67" class="i">economics</text><text x="61.122" y="1.67" class="i">favor</text><text x="67.134" y="1.67" class="i">B2B</text><text x="71.142" y="1.67" class="i">but</text><text x="75.15" y="1.67" class="i">we</text><text x="78.156" y="1.67" class="i">have</text><text x="83.166" y="1.67" class="i">zero</text><text x="89.178" y="1.67" class="i">│</text></symbol><symbol id="29"><text y="1.67" class="i">│</text><text x="23.046" y="1.67" class="i">│</text><text x="32.064" y="1.67" class="i">│</text><text x="40.08" y="1.67" class="i">│</text><text x="42.084" y="1.67" class="i">data</text><text x="47.094" y="1.67" class="i">on</text><text x="50.1" y="1.67" class="i">enterprise</text><text x="61.122" y="1.67" class="i">sales</text><text x="67.134" y="1.67" class="i">cycle</text><text x="73.146" y="1.67" class="i">length,</text><text x="81.162" y="1.67" class="i">churn,</text><text x="89.178" y="1.67" class="i">│</text></symbol><symbol id="30"><text y="1.67" class="i">│</text><text x="23.046" y="1.67" class="i">│</text><text x="32.064" y="1.67" class="i">│</text><text x="40.08" y="1.67" class="i">│</text><text x="42.084" y="1.67" class="i">or</text><text x="45.09" y="1.67" class="i">implementation</text><text x="60.12" y="1.67" class="i">costs.</text><text x="67.134" y="1.67" class="i">...</text><text x="89.178" y="1.67" class="i">│</text></symbol><symbol id="31"><text y="1.67" class="i">│</text><text x="2.004" y="1.67" class="g">Pragmatist</text><text x="23.046" y="1.67" class="i">│</text><text x="26.052" y="1.67" class="l">YES</text><text x="32.064" y="1.67" class="i">│</text><text x="36.072" y="1.67" class="j">65%</text><text x="40.08" y="1.67" class="i">│</text><text x="42.084" y="1.67" class="i">Hybrid</text><text x="49.098" y="1.67" class="i">approach:</text><text x="59.118" y="1.67" class="i">keep</text><text x="64.128" y="1.67" class="i">B2C</text><text x="68.136" y="1.67" class="i">running</text><text x="76.152" y="1.67" class="i">on</text><text x="89.178" y="1.67" class="i">│</text></symbol><symbol id="32"><text y="1.67" class="i">│</text><text x="23.046" y="1.67" class="i">│</text><text x="32.064" y="1.67" class="i">│</text><text x="40.08" y="1.67" class="i">│</text><text x="42.084" y="1.67" class="i">autopilot,</text><text x="53.106" y="1.67" class="i">dedicate</text><text x="62.124" y="1.67" class="i">5</text><text x="64.128" y="1.67" class="i">of</text><text x="67.134" y="1.67" class="i">8</text><text x="69.138" y="1.67" class="i">engineers</text><text x="79.158" y="1.67" class="i">to</text><text x="82.164" y="1.67" class="i">B2B</text><text x="89.178" y="1.67" class="i">│</text></symbol><symbol id="33"><text y="1.67" class="i">│</text><text x="23.046" y="1.67" class="i">│</text><text x="32.064" y="1.67" class="i">│</text><text x="40.08" y="1.67" class="i">│</text><text x="42.084" y="1.67" class="i">pilot.</text><text x="49.098" y="1.67" class="i">Test</text><text x="54.108" y="1.67" class="i">with</text><text x="59.118" y="1.67" class="i">3</text><text x="61.122" y="1.67" class="i">enterprise</text><text x="72.144" y="1.67" class="i">prospe...</text><text x="89.178" y="1.67" class="i">│</text></symbol><symbol id="34"><text y="1.67" class="i">╰──────────────────────┴────────┴───────┴────────────────────────────────────────────────╯</text></symbol><symbol id="35"><text y="1.67" class="l">──────────────────────────────────────</text><text x="39.078" y="1.67" class="m">KEY</text><text x="43.086" y="1.67" class="m">FACTORS</text><text x="51.102" y="1.67" class="l">───────────────────────────────────────</text></symbol><symbol id="36"><text x="2.004" y="1.67" class="f">Visionary</text><text x="11.022" y="1.67" class="i">:</text><text x="13.026" y="1.67" class="i">Enterprise</text><text x="24.048" y="1.67" class="i">ARR</text><text x="28.056" y="1.67" class="i">predictability</text><text x="43.086" y="1.67" class="i">·</text><text x="45.09" y="1.67" class="i">B2C</text><text x="49.098" y="1.67" class="i">CAC</text><text x="53.106" y="1.67" class="i">unsustainable</text><text x="67.134" y="1.67" class="i">at</text><text x="70.14" y="1.67" class="i">current</text><text x="78.156" y="1.67" class="i">scale</text><text x="84.168" y="1.67" class="i">·</text></symbol><symbol id="37"><text y="1.67" class="i">Defensible</text><text x="11.022" y="1.67" class="i">contracts</text><text x="21.042" y="1.67" class="i">vs</text><text x="24.048" y="1.67" class="i">viral</text><text x="30.06" y="1.67" class="i">dependency</text></symbol><symbol id="38"><text x="2.004" y="1.67" class="f">DevilsAdvocate</text><text x="16.032" y="1.67" class="i">:</text><text x="18.036" y="1.67" class="i">No</text><text x="21.042" y="1.67" class="i">enterprise</text><text x="32.064" y="1.67" class="i">sales</text><text x="38.076" y="1.67" class="i">infrastructure</text><text x="53.106" y="1.67" class="i">·</text><text x="55.11" y="1.67" class="i">SOC</text><text x="59.118" y="1.67" class="g">2</text><text x="61.122" y="1.67" class="i">compliance</text><text x="72.144" y="1.67" class="i">gap</text><text x="76.152" y="1.67" class="i">·</text><text x="78.156" y="1.67" class="i">Pivot</text></symbol><symbol id="39"><text y="1.67" class="i">execution</text><text x="10.02" y="1.67" class="i">risk</text><text x="15.03" y="1.67" class="i">with</text><text x="20.04" y="1.67" class="i">limited</text><text x="28.056" y="1.67" class="i">runway</text></symbol><symbol id="40"><text x="2.004" y="1.67" class="f">GrowthHacker</text><text x="14.028" y="1.67" class="i">:</text><text x="16.032" y="1.67" class="i">5</text><text x="17.034" y="1.67" class="g">0x</text><text x="20.04" y="1.67" class="i">revenue</text><text x="28.056" y="1.67" class="i">per</text><text x="32.064" y="1.67" class="i">customer</text><text x="41.082" y="1.67" class="i">·</text><text x="43.086" y="1.67" class="i">Shorter</text><text x="51.102" y="1.67" class="i">payback</text><text x="59.118" y="1.67" class="i">period</text><text x="66.132" y="1.67" class="i">·</text><text x="68.136" y="1.67" class="i">Land-and-expand</text><text x="84.168" y="1.67" class="i">model</text></symbol><symbol id="41"><text y="1.67" class="i">fits</text><text x="5.01" y="1.67" class="i">product</text></symbol><symbol id="42"><text x="2.004" y="1.67" class="f">NumbersCruncher</text><text x="17.034" y="1.67" class="i">:</text><text x="19.038" y="1.67" class="i">No</text><text x="22.044" y="1.67" class="i">enterprise</text><text x="33.066" y="1.67" class="i">churn</text><text x="39.078" y="1.67" class="i">data</text><text x="44.088" y="1.67" class="i">·</text><text x="46.092" y="1.67" class="i">Implementation</text><text x="61.122" y="1.67" class="i">cost</text><text x="66.132" y="1.67" class="i">unknown</text><text x="74.148" y="1.67" class="i">·</text><text x="76.152" y="1.67" class="i">Sales</text><text x="82.164" y="1.67" class="i">cycle</text></symbol><symbol id="43"><text y="1.67" class="i">length</text><text x="7.014" y="1.67" class="i">unvalidated</text></symbol><symbol id="44"><text x="2.004" y="1.67" class="f">Pragmatist</text><text x="12.024" y="1.67" class="i">:</text><text x="14.028" y="1.67" class="i">Hybrid</text><text x="21.042" y="1.67" class="i">reduces</text><text x="29.058" y="1.67" class="i">risk</text><text x="34.068" y="1.67" class="i">·</text><text x="36.072" y="1.67" class="g">90</text><text x="38.076" y="1.67" class="i">-day</text><text x="43.086" y="1.67" class="i">pilot</text><text x="49.098" y="1.67" class="i">is</text><text x="52.104" y="1.67" class="i">reversible</text><text x="63.126" y="1.67" class="i">·</text><text x="65.13" y="1.67" class="i">Team</text><text x="70.14" y="1.67" class="i">capacity</text><text x="79.158" y="1.67" class="i">allows</text></symbol><symbol id="45"><text y="1.67" class="i">parallel</text><text x="9.018" y="1.67" class="i">track</text></symbol><symbol id="46"><text y="1.67" class="l">────────────────────────────────────</text><text x="37.074" y="1.67" class="o">DISSENTING</text><text x="48.096" y="1.67" class="o">VIEWS</text><text x="54.108" y="1.67" class="l">────────────────────────────────────</text></symbol><symbol id="47"><text x="2.004" y="1.67" class="o">DevilsAdvocate</text><text x="16.032" y="1.67" class="i">:</text><text x="18.036" y="1.67" class="i">No</text><text x="21.042" y="1.67" class="i">enterprise</text><text x="32.064" y="1.67" class="i">sales</text><text x="38.076" y="1.67" class="i">infrastructure</text><text x="53.106" y="1.67" class="i">exists.</text><text x="61.122" y="1.67" class="i">Pivoting</text><text x="70.14" y="1.67" class="i">without</text><text x="78.156" y="1.67" class="i">SOC</text><text x="82.164" y="1.67" class="g">2</text><text x="83.166" y="1.67" class="i">,</text><text x="85.17" y="1.67" class="i">SLAs,</text></symbol><symbol id="48"><text y="1.67" class="i">or</text><text x="3.006" y="1.67" class="i">a</text><text x="5.01" y="1.67" class="i">sales</text><text x="11.022" y="1.67" class="i">team</text><text x="16.032" y="1.67" class="i">is</text><text x="19.038" y="1.67" class="i">a</text><text x="21.042" y="1.67" class="i">recipe</text><text x="28.056" y="1.67" class="i">for</text><text x="32.064" y="1.67" class="i">burning</text><text x="40.08" y="1.67" class="i">remaining</text><text x="50.1" y="1.67" class="i">runway.</text></symbol><symbol id="49"><text x="2.004" y="1.67" class="o">NumbersCruncher</text><text x="17.034" y="1.67" class="i">:</text><text x="19.038" y="1.67" class="i">Revenue</text><text x="27.054" y="1.67" class="i">projections</text><text x="39.078" y="1.67" class="i">based</text><text x="45.09" y="1.67" class="i">on</text><text x="48.096" y="1.67" class="g">3</text><text x="50.1" y="1.67" class="i">inbound</text><text x="58.116" y="1.67" class="i">inquiries</text><text x="68.136" y="1.67" class="i">are</text><text x="72.144" y="1.67" class="i">statistically</text></symbol><symbol id="50"><text y="1.67" class="i">meaningless.</text><text x="13.026" y="1.67" class="i">Need</text><text x="18.036" y="1.67" class="i">validated</text><text x="28.056" y="1.67" class="i">sales</text><text x="34.068" y="1.67" class="i">cycle</text><text x="40.08" y="1.67" class="i">and</text><text x="44.088" y="1.67" class="i">churn</text><text x="50.1" y="1.67" class="i">data.</text></symbol><symbol id="51"><text y="1.67" class="i">──────────────────────────────────────────────────────────────────────────────────────────</text></symbol><symbol id="52"><text x="2.004" y="1.67" class="i">swarm-agency</text><text x="15.03" y="1.67" class="i">·</text><text x="17.034" y="1.67" class="g">5</text><text x="19.038" y="1.67" class="i">agents</text><text x="26.052" y="1.67" class="i">·</text><text x="28.056" y="1.67" class="g">5</text><text x="30.06" y="1.67" class="i">model</text><text x="36.072" y="1.67" class="i">families</text><text x="45.09" y="1.67" class="i">·</text><text x="47.094" y="1.67" class="i">github.com/Miles0sage/swarm-agency</text></symbol><symbol id="a"><path fill="transparent" d="M0 0h90v36H0z"/></symbol></defs><path class="a" d="M0 0h90v75.985H0z"/><g style="animation-duration:.210504s;animation-iteration-count:infinite;animation-name:q;animation-timing-function:steps(1,end)"><svg width="1530"><svg><use xlink:href="#a"/></svg><svg x="90"><use xlink:href="#a"/></svg><svg x="180"><use xlink:href="#a"/><use xlink:href="#1" y="2.171"/></svg><svg x="270"><use xlink:href="#a"/><use xlink:href="#1" y="2.171"/></svg><svg x="360"><use xlink:href="#a"/><use xlink:href="#1" y="2.171"/><use xlink:href="#2" y="6.513"/></svg><svg x="450"><use xlink:href="#a"/><use xlink:href="#1" y="2.171"/><use xlink:href="#2" y="6.513"/><use xlink:href="#3" y="8.684"/><use xlink:href="#4" y="10.855"/><use xlink:href="#3" y="13.026"/><use xlink:href="#5" y="15.197"/><use xlink:href="#6" y="17.368"/><use xlink:href="#7" y="19.539"/><use xlink:href="#8" y="23.881"/><use xlink:href="#9" y="26.052"/><use xlink:href="#10" y="28.223"/></svg><svg x="540"><use xlink:href="#a"/><use xlink:href="#1" y="2.171"/><use xlink:href="#2" y="6.513"/><use xlink:href="#3" y="8.684"/><use xlink:href="#4" y="10.855"/><use xlink:href="#3" y="13.026"/><use xlink:href="#5" y="15.197"/><use xlink:href="#6" y="17.368"/><use xlink:href="#7" y="19.539"/><use xlink:href="#8" y="23.881"/><use xlink:href="#9" y="26.052"/><use xlink:href="#10" y="28.223"/><use xlink:href="#11" y="30.394"/></svg><svg x="630"><use xlink:href="#a"/><use xlink:href="#1" y="2.171"/><use xlink:href="#2" y="6.513"/><use xlink:href="#3" y="8.684"/><use xlink:href="#4" y="10.855"/><use xlink:href="#3" y="13.026"/><use xlink:href="#5" y="15.197"/><use xlink:href="#6" y="17.368"/><use xlink:href="#7" y="19.539"/><use xlink:href="#8" y="23.881"/><use xlink:href="#9" y="26.052"/><use xlink:href="#10" y="28.223"/><use xlink:href="#11" y="30.394"/><use xlink:href="#12" y="34.736"/><use xlink:href="#13" y="36.907"/><use xlink:href="#14" y="39.078"/></svg><svg x="720"><use xlink:href="#a"/><use xlink:href="#1" y="2.171"/><use xlink:href="#2" y="6.513"/><use xlink:href="#3" y="8.684"/><use xlink:href="#4" y="10.855"/><use xlink:href="#3" y="13.026"/><use xlink:href="#5" y="15.197"/><use xlink:href="#6" y="17.368"/><use xlink:href="#7" y="19.539"/><use xlink:href="#8" y="23.881"/><use xlink:href="#9" y="26.052"/><use xlink:href="#10" y="28.223"/><use xlink:href="#11" y="30.394"/><use xlink:href="#12" y="34.736"/><use xlink:href="#13" y="36.907"/><use xlink:href="#14" y="39.078"/><use xlink:href="#15" y="43.42"/></svg><svg x="810"><use xlink:href="#a"/><use xlink:href="#14"/><use xlink:href="#15" y="4.342"/><text x="4.008" y="8.183" class="l">YES</text><text x="7.014" y="8.183" class="i">:</text><text x="9.018" y="8.183" class="g">3</text><text x="16.032" y="8.183" class="n">NO</text><text x="18.036" y="8.183" class="i">:</text><text x="20.04" y="8.183" class="g">1</text><text x="27.054" y="8.183" class="j">MAYBE</text><text x="32.064" y="8.183" class="i">:</text><text x="34.068" y="8.183" class="g">1</text><text y="12.525" class="l">───────────────────────────────────</text><text x="36.072" y="12.525" class="m">AGENT</text><text x="42.084" y="12.525" class="m">DELIBERATION</text><text x="55.11" y="12.525" class="l">───────────────────────────────────</text><use xlink:href="#16" y="15.197"/><use xlink:href="#17" y="17.368"/><use xlink:href="#18" y="19.539"/><use xlink:href="#19" y="21.71"/><use xlink:href="#20" y="23.881"/><use xlink:href="#21" y="26.052"/><use xlink:href="#22" y="28.223"/><use xlink:href="#23" y="30.394"/><use xlink:href="#24" y="32.565"/><use xlink:href="#25" y="34.736"/><use xlink:href="#26" y="36.907"/><use xlink:href="#27" y="39.078"/><use xlink:href="#28" y="41.249"/><use xlink:href="#29" y="43.42"/><use xlink:href="#30" y="45.591"/><use xlink:href="#31" y="47.762"/><use xlink:href="#32" y="49.933"/><use xlink:href="#33" y="52.104"/><use xlink:href="#34" y="54.275"/><use xlink:href="#35" y="58.617"/><use xlink:href="#36" y="62.959"/><use xlink:href="#37" y="65.13"/><use xlink:href="#38" y="67.301"/><use xlink:href="#39" y="69.472"/><use xlink:href="#40" y="71.643"/><use xlink:href="#41" y="73.814"/><text x="2.004" y="77.655" class="f">NumbersCruncher</text><text x="17.034" y="77.655" class="i">:</text><text x="19.038" y="77.655" class="i">No</text><text x="22.044" y="77.655" class="i">enterprise</text><text x="33.066" y="77.655" class="i">churn</text><text x="39.078" y="77.655" class="i">data</text><text x="44.088" y="77.655" class="i">·</text><text x="46.092" y="77.655" class="i">Implemen</text></svg><svg x="900"><use xlink:href="#a"/><use xlink:href="#16"/><use xlink:href="#17" y="2.171"/><use xlink:href="#18" y="4.342"/><use xlink:href="#19" y="6.513"/><use xlink:href="#20" y="8.684"/><use xlink:href="#21" y="10.855"/><use xlink:href="#22" y="13.026"/><use xlink:href="#23" y="15.197"/><use xlink:href="#24" y="17.368"/><use xlink:href="#25" y="19.539"/><use xlink:href="#26" y="21.71"/><use xlink:href="#27" y="23.881"/><use xlink:href="#28" y="26.052"/><use xlink:href="#29" y="28.223"/><use xlink:href="#30" y="30.394"/><use xlink:href="#31" y="32.565"/><use xlink:href="#32" y="34.736"/><use xlink:href="#33" y="36.907"/><use xlink:href="#34" y="39.078"/><use xlink:href="#35" y="43.42"/><use xlink:href="#36" y="47.762"/><use xlink:href="#37" y="49.933"/><use xlink:href="#38" y="52.104"/><use xlink:href="#39" y="54.275"/><use xlink:href="#40" y="56.446"/><use xlink:href="#41" y="58.617"/><use xlink:href="#42" y="60.788"/><use xlink:href="#43" y="62.959"/><use xlink:href="#44" y="65.13"/><use xlink:href="#45" y="67.301"/><use xlink:href="#46" y="71.643"/></svg><svg x="990"><use xlink:href="#a"/><use xlink:href="#18"/><use xlink:href="#19" y="2.171"/><use xlink:href="#20" y="4.342"/><use xlink:href="#21" y="6.513"/><use xlink:href="#22" y="8.684"/><use xlink:href="#23" y="10.855"/><use xlink:href="#24" y="13.026"/><use xlink:href="#25" y="15.197"/><use xlink:href="#26" y="17.368"/><use xlink:href="#27" y="19.539"/><use xlink:href="#28" y="21.71"/><use xlink:href="#29" y="23.881"/><use xlink:href="#30" y="26.052"/><use xlink:href="#31" y="28.223"/><use xlink:href="#32" y="30.394"/><use xlink:href="#33" y="32.565"/><use xlink:href="#34" y="34.736"/><use xlink:href="#35" y="39.078"/><use xlink:href="#36" y="43.42"/><use xlink:href="#37" y="45.591"/><use xlink:href="#38" y="47.762"/><use xlink:href="#39" y="49.933"/><use xlink:href="#40" y="52.104"/><use xlink:href="#41" y="54.275"/><use xlink:href="#42" y="56.446"/><use xlink:href="#43" y="58.617"/><use xlink:href="#44" y="60.788"/><use xlink:href="#45" y="62.959"/><use xlink:href="#46" y="67.301"/><use xlink:href="#47" y="71.643"/><use xlink:href="#48" y="73.814"/></svg><svg x="1080"><use xlink:href="#a"/><use xlink:href="#20"/><use xlink:href="#21" y="2.171"/><use xlink:href="#22" y="4.342"/><use xlink:href="#23" y="6.513"/><use xlink:href="#24" y="8.684"/><use xlink:href="#25" y="10.855"/><use xlink:href="#26" y="13.026"/><use xlink:href="#27" y="15.197"/><use xlink:href="#28" y="17.368"/><use xlink:href="#29" y="19.539"/><use xlink:href="#30" y="21.71"/><use xlink:href="#31" y="23.881"/><use xlink:href="#32" y="26.052"/><use xlink:href="#33" y="28.223"/><use xlink:href="#34" y="30.394"/><use xlink:href="#35" y="34.736"/><use xlink:href="#36" y="39.078"/><use xlink:href="#37" y="41.249"/><use xlink:href="#38" y="43.42"/><use xlink:href="#39" y="45.591"/><use xlink:href="#40" y="47.762"/><use xlink:href="#41" y="49.933"/><use xlink:href="#42" y="52.104"/><use xlink:href="#43" y="54.275"/><use xlink:href="#44" y="56.446"/><use xlink:href="#45" y="58.617"/><use xlink:href="#46" y="62.959"/><use xlink:href="#47" y="67.301"/><use xlink:href="#48" y="69.472"/><use xlink:href="#49" y="71.643"/><use xlink:href="#50" y="73.814"/></svg><svg x="1170"><use xlink:href="#a"/><use xlink:href="#21"/><use xlink:href="#22" y="2.171"/><use xlink:href="#23" y="4.342"/><use xlink:href="#24" y="6.513"/><use xlink:href="#25" y="8.684"/><use xlink:href="#26" y="10.855"/><use xlink:href="#27" y="13.026"/><use xlink:href="#28" y="15.197"/><use xlink:href="#29" y="17.368"/><use xlink:href="#30" y="19.539"/><use xlink:href="#31" y="21.71"/><use xlink:href="#32" y="23.881"/><use xlink:href="#33" y="26.052"/><use xlink:href="#34" y="28.223"/><use xlink:href="#35" y="32.565"/><use xlink:href="#36" y="36.907"/><use xlink:href="#37" y="39.078"/><use xlink:href="#38" y="41.249"/><use xlink:href="#39" y="43.42"/><use xlink:href="#40" y="45.591"/><use xlink:href="#41" y="47.762"/><use xlink:href="#42" y="49.933"/><use xlink:href="#43" y="52.104"/><use xlink:href="#44" y="54.275"/><use xlink:href="#45" y="56.446"/><use xlink:href="#46" y="60.788"/><use xlink:href="#47" y="65.13"/><use xlink:href="#48" y="67.301"/><use xlink:href="#49" y="69.472"/><use xlink:href="#50" y="71.643"/></svg><svg x="1260"><use xlink:href="#a"/><use xlink:href="#22"/><use xlink:href="#23" y="2.171"/><use xlink:href="#24" y="4.342"/><use xlink:href="#25" y="6.513"/><use xlink:href="#26" y="8.684"/><use xlink:href="#27" y="10.855"/><use xlink:href="#28" y="13.026"/><use xlink:href="#29" y="15.197"/><use xlink:href="#30" y="17.368"/><use xlink:href="#31" y="19.539"/><use xlink:href="#32" y="21.71"/><use xlink:href="#33" y="23.881"/><use xlink:href="#34" y="26.052"/><use xlink:href="#35" y="30.394"/><use xlink:href="#36" y="34.736"/><use xlink:href="#37" y="36.907"/><use xlink:href="#38" y="39.078"/><use xlink:href="#39" y="41.249"/><use xlink:href="#40" y="43.42"/><use xlink:href="#41" y="45.591"/><use xlink:href="#42" y="47.762"/><use xlink:href="#43" y="49.933"/><use xlink:href="#44" y="52.104"/><use xlink:href="#45" y="54.275"/><use xlink:href="#46" y="58.617"/><use xlink:href="#47" y="62.959"/><use xlink:href="#48" y="65.13"/><use xlink:href="#49" y="67.301"/><use xlink:href="#50" y="69.472"/><use xlink:href="#51" y="73.814"/></svg><svg x="1350"><use xlink:href="#a"/><use xlink:href="#23"/><use xlink:href="#24" y="2.171"/><use xlink:href="#25" y="4.342"/><use xlink:href="#26" y="6.513"/><use xlink:href="#27" y="8.684"/><use xlink:href="#28" y="10.855"/><use xlink:href="#29" y="13.026"/><use xlink:href="#30" y="15.197"/><use xlink:href="#31" y="17.368"/><use xlink:href="#32" y="19.539"/><use xlink:href="#33" y="21.71"/><use xlink:href="#34" y="23.881"/><use xlink:href="#35" y="28.223"/><use xlink:href="#36" y="32.565"/><use xlink:href="#37" y="34.736"/><use xlink:href="#38" y="36.907"/><use xlink:href="#39" y="39.078"/><use xlink:href="#40" y="41.249"/><use xlink:href="#41" y="43.42"/><use xlink:href="#42" y="45.591"/><use xlink:href="#43" y="47.762"/><use xlink:href="#44" y="49.933"/><use xlink:href="#45" y="52.104"/><use xlink:href="#46" y="56.446"/><use xlink:href="#47" y="60.788"/><use xlink:href="#48" y="62.959"/><use xlink:href="#49" y="65.13"/><use xlink:href="#50" y="67.301"/><use xlink:href="#51" y="71.643"/><use xlink:href="#52" y="73.814"/></svg><svg x="1440"><use xlink:href="#a"/><use xlink:href="#24"/><use xlink:href="#25" y="2.171"/><use xlink:href="#26" y="4.342"/><use xlink:href="#27" y="6.513"/><use xlink:href="#28" y="8.684"/><use xlink:href="#29" y="10.855"/><use xlink:href="#30" y="13.026"/><use xlink:href="#31" y="15.197"/><use xlink:href="#32" y="17.368"/><use xlink:href="#33" y="19.539"/><use xlink:href="#34" y="21.71"/><use xlink:href="#35" y="26.052"/><use xlink:href="#36" y="30.394"/><use xlink:href="#37" y="32.565"/><use xlink:href="#38" y="34.736"/><use xlink:href="#39" y="36.907"/><use xlink:href="#40" y="39.078"/><use xlink:href="#41" y="41.249"/><use xlink:href="#42" y="43.42"/><use xlink:href="#43" y="45.591"/><use xlink:href="#44" y="47.762"/><use xlink:href="#45" y="49.933"/><use xlink:href="#46" y="54.275"/><use xlink:href="#47" y="58.617"/><use xlink:href="#48" y="60.788"/><use xlink:href="#49" y="62.959"/><use xlink:href="#50" y="65.13"/><use xlink:href="#51" y="69.472"/><use xlink:href="#52" y="71.643"/></svg></svg></g></g></svg></svg>