<svg xmlns="http://www.w3.org/2000/svg" xmlns:xlink="http://www.w3.org/1999/xlink" width="840" height="2013.9"><rect width="840" height="2013.9" rx="5" ry="5" class="a"/><svg y="0%" x="0%"><circle cx="20" cy="20" r="6" fill="#ff5f58"/><circle cx="40" cy="20" r="6" fill="#ffbd2e"/><circle cx="60" cy="20" r="6" fill="#18c132"/></svg><svg height="1953.9" viewBox="0 0 80 195.39" width="800" x="15" xmlns="http://www.w3.org/2000/svg" xmlns:xlink="http://www.w3.org/1999/xlink" y="50"><style>.a{fill:#282d35}.f,.h,.j{fill:#66c2cd;white-space:pre}.h,.j{fill:#b9c0cb}.j{fill:#b9bfca;font-weight:700}</style><g font-family="Monaco,Consolas,Menlo,'Bitstream Vera Sans Mono','Powerline Symbols',monospace" font-size="1.67"><defs><symbol id="1"><text y="1.67" class="f">│</text><text x="79.158" y="1.67" class="f">│</text></symbol><symbol id="a"><path fill="transparent" d="M0 0h80v91H0z"/></symbol></defs><path class="a" d="M0 0h80v195.39H0z"/><svg width="80"><svg><use xlink:href="#a"/><text y="3.841" class="h">╭──────────────────────────────────────────────────────────────────────────────╮</text><text y="6.012" class="h">│</text><text x="4.008" y="6.012" style="white-space:pre" fill="#a8cc8c" font-weight="700">$</text><text x="6.012" y="6.012" class="j">swarm-agency</text><text x="19.038" y="6.012" class="j">--demo</text><text x="26.052" y="6.012" class="j">startup-pivot</text><text x="79.158" y="6.012" class="h">│</text><text y="8.183" class="h">╰──────────────────────────────────────────────────────────────────────────────╯</text><text y="12.525" class="f">╭──────────────────────────────────</text><text x="36.072" y="12.525" style="white-space:pre" fill="#66c2cd" font-weight="700">QUESTION</text><text x="45.09" y="12.525" class="f">──────────────────────────────────╮</text><use xlink:href="#1" y="13.026"/><text y="16.867" class="f">│</text><path fill="#71bef2" d="M24.048 15.197h32v2.171h-32z"/><text x="24.048" y="16.867" class="j">Should we pivot from B2C to B2B?</text><text x="79.158" y="16.867" class="f">│</text><use xlink:href="#1" y="17.368"/><text y="21.209" class="f">╰─────────────────</text><text x="19.038" y="21.209" class="f">Department:</text><text x="31.062" y="21.209" class="f">Strategy</text><text x="40.08" y="21.209" class="f">|</text><text x="42.084" y="21.209" class="f">5</text><text x="44.088" y="21.209" class="f">agents</text><text x="51.102" y="21.209" class="f">|</text><text x="53.106" y="21.209" class="f">5</text><text x="55.11" y="21.209" class="f">models</text><text x="62.124" y="21.209" class="f">─────────────────╯</text></svg></svg></g></svg></svg>