<svg xmlns="http://www.w3.org/2000/svg" xmlns:xlink="http://www.w3.org/1999/xlink" width="840" height="3099.4"><rect width="840" height="3099.4" rx="5" ry="5" class="a"/><svg y="0%" x="0%"><circle cx="20" cy="20" r="6" fill="#ff5f58"/><circle cx="40" cy="20" r="6" fill="#ffbd2e"/><circle cx="60" cy="20" r="6" fill="#18c132"/></svg><svg height="3039.4" viewBox="0 0 80 303.94" width="800" x="15" xmlns="http://www.w3.org/2000/svg" xmlns:xlink="http://www.w3.org/1999/xlink" y="50"><style>.a{fill:#282d35}.f,.g,.h,.i,.j{fill:#b9c0cb;white-space:pre}.g,.h,.i,.j{fill:#66c2cd}.h,.i,.j{fill:#73bef3}.i,.j{fill:#a8cc8c}.j{fill:#d290e3}.l,.m{font-weight:700}.l{fill:#a8cc8c;white-space:pre}.m{fill:#b9bfca}.m,.n,.p{white-space:pre}.n{fill:#66c2cd;font-weight:700}.p{fill:#dbab79}.q,.r{font-weight:700}.q{fill:#dbab79;white-space:pre}.r{fill:#b9c0cb}.r,.s,.t{white-space:pre}.s{fill:#e88388;font-weight:700}.t{fill:#b9bfca}.u{fill:#000087}.A,.B,.v,.w{white-space:pre}.v{fill:#fff;font-weight:700}.A,.B,.w{fill:#e88388}.A,.B{fill:#d290e4}.B{font-weight:700}.C{fill:#8700af}</style><g font-family="Monaco,Consolas,Menlo,'Bitstream Vera Sans Mono','Powerline Symbols',monospace" font-size="1.67"><defs><symbol id="1"><text y="1.67" class="f">╭──────────────────────────────────────────────────────────────────────────────╮</text></symbol><symbol id="2"><text y="1.67" class="f">╰──────────────────────────────────────────────────────────────────────────────╯</text></symbol><symbol id="3"><text y="1.67" class="g">│</text><text x="79.158" y="1.67" class="g">│</text></symbol><symbol id="4"><text y="1.67" class="f">│</text><text x="79.158" y="1.67" class="f">│</text></symbol><symbol id="5"><text x="7.014" y="1.67" class="h">├─────────────────┼──────────────────┼──────────┼────────────────┤</text></symbol><symbol id="6"><text y="1.67" class="i">│</text><text x="79.158" y="1.67" class="i">│</text></symbol><symbol id="7"><text y="1.67" class="j">├──────────────┼───────────────┼────────────┼────────────┼──────────┼──────────┤</text></symbol><symbol id="8"><text y="1.67" class="j">│</text><text x="15.03" y="1.67" class="j">│</text><text x="17.034" y="1.67" class="f">competitor</text><text x="31.062" y="1.67" class="j">│</text><text x="44.088" y="1.67" class="j">│</text><text x="57.114" y="1.67" class="j">│</text><text x="68.136" y="1.67" class="j">│</text><text x="79.158" y="1.67" class="j">│</text></symbol><symbol id="a"><path fill="transparent" d="M0 0h80v141H0z"/></symbol></defs><path class="a" d="M0 0h80v303.94H0z"/><svg width="80"><svg><use xlink:href="#a"/><use xlink:href="#1" y="2.171"/><text y="6.012" class="f">│</text><text x="4.008" y="6.012" class="l">$</text><text x="6.012" y="6.012" class="m">swarm-agency</text><text x="19.038" y="6.012" class="m">--demo</text><text x="26.052" y="6.012" class="m">startup-pivot</text><text x="79.158" y="6.012" class="f">│</text><use xlink:href="#2" y="6.513"/><text y="12.525" class="g">╭──────────────────────────────────</text><text x="36.072" y="12.525" class="n">QUESTION</text><text x="45.09" y="12.525" class="g">──────────────────────────────────╮</text><use xlink:href="#3" y="13.026"/><text y="16.867" class="g">│</text><path fill="#71bef2" d="M24.048 15.197h32v2.171h-32z"/><text x="24.048" y="16.867" class="m">Should we pivot from B2C to B2B?</text><text x="79.158" y="16.867" class="g">│</text><use xlink:href="#3" y="17.368"/><text y="21.209" class="g">╰─────────────────</text><text x="19.038" y="21.209" class="g">Department:</text><text x="31.062" y="21.209" class="g">Strategy</text><text x="40.08" y="21.209" class="g">|</text><text x="42.084" y="21.209" class="g">5</text><text x="44.088" y="21.209" class="g">agents</text><text x="51.102" y="21.209" class="g">|</text><text x="53.106" y="21.209" class="g">5</text><text x="55.11" y="21.209" class="g">models</text><text x="62.124" y="21.209" class="g">─────────────────╯</text><text y="23.38" class="f">Context:</text><text x="9.018" y="23.38" class="f">B2C</text><text x="13.026" y="23.38" class="f">growth</text><text x="20.04" y="23.38" class="f">flat</text><text x="25.05" y="23.38" class="f">at</text><text x="28.056" y="23.38" class="f">12k</text><text x="32.064" y="23.38" class="f">MAU</text><text x="36.072" y="23.38" class="f">for</text><text x="40.08" y="23.38" class="n">6</text><text x="42.084" y="23.38" class="f">months.</text><text x="50.1" y="23.38" class="f">Enterprise</text><text x="61.122" y="23.38" class="f">inbound</text><text x="69.138" y="23.38" class="f">up</text><text x="72.144" y="23.38" class="f">3x.</text><text x="76.152" y="23.38" class="f">Team</text><text y="25.551" class="f">of</text><text x="3.006" y="25.551" class="n">8</text><text x="4.008" y="25.551" class="f">.</text><text x="6.012" y="25.551" class="n">14</text><text x="9.018" y="25.551" class="f">months</text><text x="16.032" y="25.551" class="f">runway.</text><text y="29.893" class="p">──────────────────────────────</text><text x="31.062" y="29.893" class="q">Agent</text><text x="37.074" y="29.893" class="q">Deliberation</text><text x="50.1" y="29.893" class="p">──────────────────────────────</text><text y="34.235" class="f">╭─────────────────────────────────</text><text x="35.07" y="34.235" class="r">Visionary</text><text x="45.09" y="34.235" class="f">──────────────────────────────────╮</text><text y="36.406" class="f">│</text><text x="3.006" y="36.406" class="f">B2B</text><text x="7.014" y="36.406" class="f">creates</text><text x="15.03" y="36.406" class="f">defensible</text><text x="26.052" y="36.406" class="f">revenue.</text><text x="35.07" y="36.406" class="f">Enterprise</text><text x="46.092" y="36.406" class="f">contracts</text><text x="56.112" y="36.406" class="f">=</text><text x="58.116" y="36.406" class="f">predictable</text><text x="70.14" y="36.406" class="f">ARR.</text><text x="79.158" y="36.406" class="f">│</text><text y="38.577" class="f">│</text><text x="3.006" y="38.577" class="f">B2C</text><text x="7.014" y="38.577" class="f">is</text><text x="10.02" y="38.577" class="f">a</text><text x="12.024" y="38.577" class="f">war</text><text x="16.032" y="38.577" class="f">of</text><text x="19.038" y="38.577" class="f">attrition</text><text x="29.058" y="38.577" class="f">we</text><text x="32.064" y="38.577" class="f">can&apos;t</text><text x="38.076" y="38.577" class="f">win</text><text x="42.084" y="38.577" class="f">at</text><text x="45.09" y="38.577" class="f">this</text><text x="50.1" y="38.577" class="f">scale.</text><text x="79.158" y="38.577" class="f">│</text><use xlink:href="#4" y="39.078"/><text y="42.919" class="f">│</text><text x="5.01" y="42.919" class="f">Position:</text><text x="15.03" y="42.919" class="l">APPROVE</text><text x="24.048" y="42.919" class="f">|</text><text x="27.054" y="42.919" class="f">Confidence:</text><text x="39.078" y="42.919" class="r">88%</text><text x="44.088" y="42.919" class="f">|</text><text x="47.094" y="42.919" class="f">Model:</text><text x="54.108" y="42.919" class="j">glm-4.7</text><text x="79.158" y="42.919" class="f">│</text><use xlink:href="#2" y="43.42"/><text y="47.261" class="f">╭───────────────────────────────</text><text x="33.066" y="47.261" class="r">DevilsAdvocate</text><text x="48.096" y="47.261" class="f">───────────────────────────────╮</text><text y="49.432" class="f">│</text><text x="3.006" y="49.432" class="f">Pivots</text><text x="10.02" y="49.432" class="f">kill</text><text x="15.03" y="49.432" class="f">startups</text><text x="24.048" y="49.432" class="f">more</text><text x="29.058" y="49.432" class="f">often</text><text x="35.07" y="49.432" class="f">than</text><text x="40.08" y="49.432" class="f">they</text><text x="45.09" y="49.432" class="f">save</text><text x="50.1" y="49.432" class="f">them.</text><text x="56.112" y="49.432" class="f">We</text><text x="59.118" y="49.432" class="f">have</text><text x="64.128" y="49.432" class="f">no</text><text x="67.134" y="49.432" class="f">enterprise</text><text x="79.158" y="49.432" class="f">│</text><text y="51.603" class="f">│</text><text x="3.006" y="51.603" class="f">sales</text><text x="9.018" y="51.603" class="f">motion,</text><text x="17.034" y="51.603" class="f">no</text><text x="20.04" y="51.603" class="f">SOC</text><text x="24.048" y="51.603" class="f">2,</text><text x="27.054" y="51.603" class="f">no</text><text x="30.06" y="51.603" class="f">SLAs.</text><text x="36.072" y="51.603" class="f">We&apos;d</text><text x="41.082" y="51.603" class="f">be</text><text x="44.088" y="51.603" class="f">starting</text><text x="53.106" y="51.603" class="f">from</text><text x="58.116" y="51.603" class="f">zero</text><text x="63.126" y="51.603" class="f">with</text><text x="68.136" y="51.603" class="f">14</text><text x="71.142" y="51.603" class="f">months</text><text x="79.158" y="51.603" class="f">│</text><text y="53.774" class="f">│</text><text x="3.006" y="53.774" class="f">runway.</text><text x="79.158" y="53.774" class="f">│</text><use xlink:href="#4" y="54.275"/><text y="58.116" class="f">│</text><text x="5.01" y="58.116" class="f">Position:</text><text x="15.03" y="58.116" class="s">REJECT</text><text x="23.046" y="58.116" class="f">|</text><text x="26.052" y="58.116" class="f">Confidence:</text><text x="38.076" y="58.116" class="r">76%</text><text x="43.086" y="58.116" class="f">|</text><text x="46.092" y="58.116" class="f">Model:</text><text x="53.106" y="58.116" class="g">kimi-k2.5</text><text x="79.158" y="58.116" class="f">│</text><use xlink:href="#2" y="58.617"/><text y="62.458" class="f">╭────────────────────────────────</text><text x="34.068" y="62.458" class="r">GrowthHacker</text><text x="47.094" y="62.458" class="f">────────────────────────────────╮</text><text y="64.629" class="f">│</text><text x="3.006" y="64.629" class="f">B2B</text><text x="7.014" y="64.629" class="f">ACV</text><text x="11.022" y="64.629" class="f">of</text><text x="14.028" y="64.629" class="f">$24k</text><text x="19.038" y="64.629" class="f">vs</text><text x="22.044" y="64.629" class="f">B2C</text><text x="26.052" y="64.629" class="f">LTV</text><text x="30.06" y="64.629" class="f">of</text><text x="33.066" y="64.629" class="f">$180.</text><text x="39.078" y="64.629" class="f">The</text><text x="43.086" y="64.629" class="f">math</text><text x="48.096" y="64.629" class="f">is</text><text x="51.102" y="64.629" class="f">obvious.</text><text x="60.12" y="64.629" class="f">50</text><text x="63.126" y="64.629" class="f">enterprise</text><text x="79.158" y="64.629" class="f">│</text><text y="66.8" class="f">│</text><text x="3.006" y="66.8" class="f">customers</text><text x="13.026" y="66.8" class="f">=</text><text x="15.03" y="66.8" class="f">$1.2M</text><text x="21.042" y="66.8" class="f">ARR.</text><text x="26.052" y="66.8" class="f">We</text><text x="29.058" y="66.8" class="f">need</text><text x="34.068" y="66.8" class="f">6,700</text><text x="40.08" y="66.8" class="f">B2C</text><text x="44.088" y="66.8" class="f">users</text><text x="50.1" y="66.8" class="f">for</text><text x="54.108" y="66.8" class="f">the</text><text x="58.116" y="66.8" class="f">same</text><text x="63.126" y="66.8" class="f">revenue.</text><text x="79.158" y="66.8" class="f">│</text><use xlink:href="#4" y="67.301"/><text y="71.142" class="f">│</text><text x="5.01" y="71.142" class="f">Position:</text><text x="15.03" y="71.142" class="l">APPROVE</text><text x="24.048" y="71.142" class="f">|</text><text x="27.054" y="71.142" class="f">Confidence:</text><text x="39.078" y="71.142" class="r">72%</text><text x="44.088" y="71.142" class="f">|</text><text x="47.094" y="71.142" class="f">Model:</text><text x="54.108" y="71.142" class="p">MiniMax-M2.5</text><text x="79.158" y="71.142" class="f">│</text><use xlink:href="#2" y="71.643"/><text y="75.484" class="f">╭──────────────────────────────</text><text x="32.064" y="75.484" class="r">NumbersCruncher</text><text x="48.096" y="75.484" class="f">───────────────────────────────╮</text><text y="77.655" class="f">│</text><text x="3.006" y="77.655" class="f">The</text><text x="7.014" y="77.655" class="f">unit</text><text x="12.024" y="77.655" class="f">economics</text><text x="22.044" y="77.655" class="f">favor</text><text x="28.056" y="77.655" class="f">B2B</text><text x="32.064" y="77.655" class="f">but</text><text x="36.072" y="77.655" class="f">we</text><text x="39.078" y="77.655" class="f">have</text><text x="44.088" y="77.655" class="f">zero</text><text x="49.098" y="77.655" class="f">data</text><text x="54.108" y="77.655" class="f">on</text><text x="57.114" y="77.655" class="f">enterprise</text><text x="68.136" y="77.655" class="f">sales</text><text x="79.158" y="77.655" class="f">│</text><text y="79.826" class="f">│</text><text x="3.006" y="79.826" class="f">cycle</text><text x="9.018" y="79.826" class="f">length,</text><text x="17.034" y="79.826" class="f">churn,</text><text x="24.048" y="79.826" class="f">or</text><text x="27.054" y="79.826" class="f">implementation</text><text x="42.084" y="79.826" class="f">costs.</text><text x="49.098" y="79.826" class="f">Projecting</text><text x="60.12" y="79.826" class="f">ARR</text><text x="64.128" y="79.826" class="f">from</text><text x="69.138" y="79.826" class="f">3</text><text x="79.158" y="79.826" class="f">│</text><text y="81.997" class="f">│</text><text x="3.006" y="81.997" class="f">inbound</text><text x="11.022" y="81.997" class="f">emails</text><text x="18.036" y="81.997" class="f">is</text><text x="21.042" y="81.997" class="f">irresponsible.</text><text x="79.158" y="81.997" class="f">│</text><use xlink:href="#4" y="82.498"/><text y="86.339" class="f">│</text><text x="5.01" y="86.339" class="f">Position:</text><text x="15.03" y="86.339" class="q">NEUTRAL</text><text x="24.048" y="86.339" class="f">|</text><text x="27.054" y="86.339" class="f">Confidence:</text><text x="39.078" y="86.339" class="r">41%</text><text x="44.088" y="86.339" class="f">|</text><text x="47.094" y="86.339" class="f">Model:</text><text x="54.108" y="86.339" class="i">qwen3-coder-plus</text><text x="79.158" y="86.339" class="f">│</text><use xlink:href="#2" y="86.84"/><text y="90.681" class="f">╭─────────────────────────────────</text><text x="35.07" y="90.681" class="r">Pragmatist</text><text x="46.092" y="90.681" class="f">─────────────────────────────────╮</text><text y="92.852" class="f">│</text><text x="3.006" y="92.852" class="f">Hybrid</text><text x="10.02" y="92.852" class="f">approach:</text><text x="20.04" y="92.852" class="f">keep</text><text x="25.05" y="92.852" class="f">B2C</text><text x="29.058" y="92.852" class="f">running</text><text x="37.074" y="92.852" class="f">on</text><text x="40.08" y="92.852" class="f">autopilot,</text><text x="51.102" y="92.852" class="f">dedicate</text><text x="60.12" y="92.852" class="f">5</text><text x="62.124" y="92.852" class="f">of</text><text x="65.13" y="92.852" class="f">8</text><text x="67.134" y="92.852" class="f">engineers</text><text x="79.158" y="92.852" class="f">│</text><text y="95.023" class="f">│</text><text x="3.006" y="95.023" class="f">to</text><text x="6.012" y="95.023" class="f">B2B</text><text x="10.02" y="95.023" class="f">pilot.</text><text x="17.034" y="95.023" class="f">Test</text><text x="22.044" y="95.023" class="f">with</text><text x="27.054" y="95.023" class="f">3</text><text x="29.058" y="95.023" class="f">enterprise</text><text x="40.08" y="95.023" class="f">prospects</text><text x="50.1" y="95.023" class="f">over</text><text x="55.11" y="95.023" class="f">90</text><text x="58.116" y="95.023" class="f">days</text><text x="63.126" y="95.023" class="f">before</text><text x="70.14" y="95.023" class="f">full</text><text x="79.158" y="95.023" class="f">│</text><text y="97.194" class="f">│</text><text x="3.006" y="97.194" class="f">commitment.</text><text x="79.158" y="97.194" class="f">│</text><use xlink:href="#4" y="97.695"/><text y="101.536" class="f">│</text><text x="5.01" y="101.536" class="f">Position:</text><text x="15.03" y="101.536" class="l">APPROVE</text><text x="24.048" y="101.536" class="f">|</text><text x="27.054" y="101.536" class="f">Confidence:</text><text x="39.078" y="101.536" class="r">65%</text><text x="44.088" y="101.536" class="f">|</text><text x="47.094" y="101.536" class="f">Model:</text><text x="54.108" y="101.536" class="h">qwen3.5-plus</text><text x="79.158" y="101.536" class="f">│</text><use xlink:href="#2" y="102.037"/><text y="108.049" class="t">─────────────────────────────────</text><text x="34.068" y="108.049" class="r">Vote</text><text x="39.078" y="108.049" class="r">Summary</text><text x="47.094" y="108.049" class="t">─────────────────────────────────</text><text x="7.014" y="112.391" class="h">┏━━━━━━━━━━━━━━━━━┳━━━━━━━━━━━━━━━━━━┳━━━━━━━━━━┳━━━━━━━━━━━━━━━━┓</text><text x="7.014" y="114.562" class="h">┃</text><path class="u" d="M8.016 112.892h17v2.171h-17z"/><text x="8.016" y="114.562" class="v">Agent</text><text x="25.05" y="114.562" class="h">┃</text><path class="u" d="M26.052 112.892h18v2.171h-18z"/><text x="26.052" y="114.562" class="v">Model</text><text x="44.088" y="114.562" class="h">┃</text><path class="u" d="M45.09 112.892h10v2.171h-10z"/><text x="45.09" y="114.562" class="v">Position</text><text x="55.11" y="114.562" class="h">┃</text><path class="u" d="M56.112 112.892h16v2.171h-16z"/><text x="56.112" y="114.562" class="v">Confidence</text><text x="72.144" y="114.562" class="h">┃</text><text x="7.014" y="116.733" class="h">┡━━━━━━━━━━━━━━━━━╇━━━━━━━━━━━━━━━━━━╇━━━━━━━━━━╇━━━━━━━━━━━━━━━━┩</text><text x="7.014" y="118.904" class="h">│</text><text x="9.018" y="118.904" class="n">Visionary</text><text x="25.05" y="118.904" class="h">│</text><text x="27.054" y="118.904" class="j">glm-4.7</text><text x="44.088" y="118.904" class="h">│</text><text x="46.092" y="118.904" class="l">APPROVE</text><text x="55.11" y="118.904" class="h">│</text><text x="57.114" y="118.904" class="i">████████░░</text><text x="68.136" y="118.904" class="f">88%</text><text x="72.144" y="118.904" class="h">│</text><use xlink:href="#5" y="119.405"/><text x="7.014" y="123.246" class="h">│</text><text x="9.018" y="123.246" class="n">DevilsAdvocate</text><text x="25.05" y="123.246" class="h">│</text><text x="27.054" y="123.246" class="g">kimi-k2.5</text><text x="44.088" y="123.246" class="h">│</text><text x="47.094" y="123.246" class="s">REJECT</text><text x="55.11" y="123.246" class="h">│</text><text x="57.114" y="123.246" class="i">███████░░░</text><text x="68.136" y="123.246" class="f">76%</text><text x="72.144" y="123.246" class="h">│</text><use xlink:href="#5" y="123.747"/><text x="7.014" y="127.588" class="h">│</text><text x="9.018" y="127.588" class="n">GrowthHacker</text><text x="25.05" y="127.588" class="h">│</text><text x="27.054" y="127.588" class="p">MiniMax-M2.5</text><text x="44.088" y="127.588" class="h">│</text><text x="46.092" y="127.588" class="l">APPROVE</text><text x="55.11" y="127.588" class="h">│</text><text x="57.114" y="127.588" class="i">███████░░░</text><text x="68.136" y="127.588" class="f">72%</text><text x="72.144" y="127.588" class="h">│</text><use xlink:href="#5" y="128.089"/><text x="7.014" y="131.93" class="h">│</text><text x="9.018" y="131.93" class="n">NumbersCruncher</text><text x="25.05" y="131.93" class="h">│</text><text x="27.054" y="131.93" class="i">qwen3-coder-plus</text><text x="44.088" y="131.93" class="h">│</text><text x="46.092" y="131.93" class="q">NEUTRAL</text><text x="55.11" y="131.93" class="h">│</text><text x="57.114" y="131.93" class="w">████░░░░░░</text><text x="68.136" y="131.93" class="f">41%</text><text x="72.144" y="131.93" class="h">│</text><use xlink:href="#5" y="132.431"/><text x="7.014" y="136.272" class="h">│</text><text x="9.018" y="136.272" class="n">Pragmatist</text><text x="25.05" y="136.272" class="h">│</text><text x="27.054" y="136.272" class="h">qwen3.5-plus</text><text x="44.088" y="136.272" class="h">│</text><text x="46.092" y="136.272" class="l">APPROVE</text><text x="55.11" y="136.272" class="h">│</text><text x="57.114" y="136.272" class="p">██████░░░░</text><text x="68.136" y="136.272" class="f">65%</text><text x="72.144" y="136.272" class="h">│</text><text x="7.014" y="138.443" class="h">└─────────────────┴──────────────────┴──────────┴────────────────┘</text><path fill="#a8cc8c" d="M18.036 141.115h14v2.171h-14z"/><text x="18.036" y="142.785" class="m">APPROVE: 3</text><path fill="#e88388" d="M34.068 141.115h13v2.171h-13z"/><text x="34.068" y="142.785" class="m">REJECT: 1</text><path fill="#d75f00" d="M49.098 141.115h12v2.171h-12z"/><text x="49.098" y="142.785" class="m">NEUTRAL: 1</text><text y="147.127" class="i">╭──────────────────────────────</text><text x="32.064" y="147.127" class="m">AGENCY</text><text x="39.078" y="147.127" class="m">DECISION</text><text x="48.096" y="147.127" class="i">───────────────────────────────╮</text><use xlink:href="#6" y="147.628"/><text y="151.469" class="i">│</text><text x="31.062" y="151.469" class="q">MAJORITY:</text><text x="41.082" y="151.469" class="l">APPROVE</text><text x="79.158" y="151.469" class="i">│</text><use xlink:href="#6" y="151.97"/><text y="155.811" class="i">╰──────────────────────────────────────────────────────────────────────────────╯</text><text y="160.153" class="f">╭──────────────────────────────────</text><text x="36.072" y="160.153" class="r">Summary</text><text x="44.088" y="160.153" class="f">───────────────────────────────────╮</text><text y="162.324" class="f">│</text><text x="3.006" y="162.324" class="f">Strategy</text><text x="12.024" y="162.324" class="f">department</text><text x="23.046" y="162.324" class="f">recommends</text><text x="34.068" y="162.324" class="f">pivot</text><text x="40.08" y="162.324" class="f">with</text><text x="45.09" y="162.324" class="f">conditions.</text><text x="57.114" y="162.324" class="f">3</text><text x="59.118" y="162.324" class="f">approve</text><text x="79.158" y="162.324" class="f">│</text><text y="164.495" class="f">│</text><text x="3.006" y="164.495" class="f">(Visionary,</text><text x="15.03" y="164.495" class="f">GrowthHacker,</text><text x="29.058" y="164.495" class="f">Pragmatist),</text><text x="42.084" y="164.495" class="f">1</text><text x="44.088" y="164.495" class="f">rejects</text><text x="52.104" y="164.495" class="f">(DevilsAdvocate</text><text x="68.136" y="164.495" class="f">citing</text><text x="79.158" y="164.495" class="f">│</text><text y="166.666" class="f">│</text><text x="3.006" y="166.666" class="f">execution</text><text x="13.026" y="166.666" class="f">risk),</text><text x="20.04" y="166.666" class="f">1</text><text x="22.044" y="166.666" class="f">neutral</text><text x="30.06" y="166.666" class="f">(NumbersCruncher</text><text x="47.094" y="166.666" class="f">wanting</text><text x="55.11" y="166.666" class="f">data).</text><text x="62.124" y="166.666" class="f">Recommended:</text><text x="79.158" y="166.666" class="f">│</text><text y="168.837" class="f">│</text><text x="3.006" y="168.837" class="f">90-day</text><text x="10.02" y="168.837" class="f">hybrid</text><text x="17.034" y="168.837" class="f">pilot</text><text x="23.046" y="168.837" class="f">before</text><text x="30.06" y="168.837" class="f">full</text><text x="35.07" y="168.837" class="f">commitment.</text><text x="79.158" y="168.837" class="f">│</text><use xlink:href="#2" y="169.338"/><text y="175.35" class="s">Dissenting</text><text x="11.022" y="175.35" class="s">Views:</text><text x="2.004" y="177.521" class="w">&gt;</text><text x="4.008" y="177.521" class="f">DevilsAdvocate:</text><text x="20.04" y="177.521" class="f">No</text><text x="23.046" y="177.521" class="f">enterprise</text><text x="34.068" y="177.521" class="f">sales</text><text x="40.08" y="177.521" class="f">infrastructure</text><text x="55.11" y="177.521" class="f">exists.</text><text x="63.126" y="177.521" class="f">Pivoting</text><text x="72.144" y="177.521" class="f">without</text><text y="179.692" class="f">SOC</text><text x="4.008" y="179.692" class="n">2</text><text x="5.01" y="179.692" class="f">,</text><text x="7.014" y="179.692" class="f">SLAs,</text><text x="13.026" y="179.692" class="f">or</text><text x="16.032" y="179.692" class="f">a</text><text x="18.036" y="179.692" class="f">sales</text><text x="24.048" y="179.692" class="f">team</text><text x="29.058" y="179.692" class="f">is</text><text x="32.064" y="179.692" class="f">a</text><text x="34.068" y="179.692" class="f">recipe</text><text x="41.082" y="179.692" class="f">for</text><text x="45.09" y="179.692" class="f">burning</text><text x="53.106" y="179.692" class="f">remaining</text><text x="63.126" y="179.692" class="f">runway.</text><text x="2.004" y="181.863" class="w">&gt;</text><text x="4.008" y="181.863" class="f">NumbersCruncher:</text><text x="21.042" y="181.863" class="f">Revenue</text><text x="29.058" y="181.863" class="f">projections</text><text x="41.082" y="181.863" class="f">based</text><text x="47.094" y="181.863" class="f">on</text><text x="50.1" y="181.863" class="n">3</text><text x="52.104" y="181.863" class="f">inbound</text><text x="60.12" y="181.863" class="f">inquiries</text><text x="70.14" y="181.863" class="f">are</text><text y="184.034" class="f">statistically</text><text x="14.028" y="184.034" class="f">meaningless.</text><text x="27.054" y="184.034" class="f">Need</text><text x="32.064" y="184.034" class="f">validated</text><text x="42.084" y="184.034" class="f">sales</text><text x="48.096" y="184.034" class="f">cycle</text><text x="54.108" y="184.034" class="f">and</text><text x="58.116" y="184.034" class="f">churn</text><text x="64.128" y="184.034" class="f">data.</text><text y="188.376" class="f">Confidence:</text><text x="12.024" y="188.376" class="n">74</text><text x="14.028" y="188.376" class="f">%</text><text x="16.032" y="188.376" class="f">|</text><text x="18.036" y="188.376" class="f">Duration:</text><text x="28.056" y="188.376" class="n">4.</text><text x="30.06" y="188.376" class="f">1s</text><text x="33.066" y="188.376" class="f">|</text><text x="35.07" y="188.376" class="f">Models:</text><text x="43.086" y="188.376" class="f">glm-</text><text x="47.094" y="188.376" class="n">4.7</text><text x="50.1" y="188.376" class="f">,</text><text x="52.104" y="188.376" class="f">kimi-k2.</text><text x="60.12" y="188.376" class="n">5</text><text x="61.122" y="188.376" class="f">,</text><text x="63.126" y="188.376" class="f">MiniMax-M2.</text><text x="74.148" y="188.376" class="n">5</text><text x="75.15" y="188.376" class="f">,</text><text y="190.547" class="f">qwen3-coder-plus,</text><text x="18.036" y="190.547" class="f">qwen3.</text><text x="24.048" y="190.547" class="n">5</text><text x="25.05" y="190.547" class="f">-plus</text><text y="194.889" class="A">───────────────────────────────</text><text x="32.064" y="194.889" class="B">Decision</text><text x="41.082" y="194.889" class="B">Memory</text><text x="48.096" y="194.889" class="A">────────────────────────────────</text><text y="199.231" class="i">Decision</text><text x="9.018" y="199.231" class="i">stored</text><text x="16.032" y="199.231" class="i">to</text><text x="19.038" y="199.231" class="i">memory</text><text x="26.052" y="199.231" class="l">(</text><text x="27.054" y="199.231" class="i">~/.swarm-agency/decisions.db</text><text x="55.11" y="199.231" class="l">)</text><use xlink:href="#1" y="201.903"/><text y="205.744" class="f">│</text><text x="4.008" y="205.744" class="l">$</text><text x="6.012" y="205.744" class="m">swarm-agency</text><text x="19.038" y="205.744" class="m">--history</text><text x="79.158" y="205.744" class="f">│</text><use xlink:href="#2" y="206.245"/><text x="32.064" y="212.257" class="r">Decision</text><text x="41.082" y="212.257" class="r">History</text><text y="214.428" class="j">┏━━━━━━━━━━━━━━┳━━━━━━━━━━━━━━━┳━━━━━━━━━━━━┳━━━━━━━━━━━━┳━━━━━━━━━━┳━━━━━━━━━━┓</text><text y="216.599" class="j">┃</text><path class="C" d="M1.002 214.929h14v2.171h-14z"/><text x="1.002" y="216.599" class="v">ID</text><text x="15.03" y="216.599" class="j">┃</text><path class="C" d="M16.032 214.929h15v2.171h-15z"/><text x="16.032" y="216.599" class="v">Question</text><text x="31.062" y="216.599" class="j">┃</text><path class="C" d="M32.064 214.929h12v2.171h-12z"/><text x="32.064" y="216.599" class="v">Dept</text><text x="44.088" y="216.599" class="j">┃</text><path class="C" d="M45.09 214.929h12v2.171h-12z"/><text x="45.09" y="216.599" class="v">Outcome</text><text x="57.114" y="216.599" class="j">┃</text><path class="C" d="M58.116 214.929h10v2.171h-10z"/><text x="58.116" y="216.599" class="v">Position</text><text x="68.136" y="216.599" class="j">┃</text><path class="C" d="M69.138 214.929h10v2.171h-10z"/><text x="69.138" y="216.599" class="v">Correct?</text><text x="79.158" y="216.599" class="j">┃</text><text y="218.77" class="j">┡━━━━━━━━━━━━━━╇━━━━━━━━━━━━━━━╇━━━━━━━━━━━━╇━━━━━━━━━━━━╇━━━━━━━━━━╇━━━━━━━━━━┩</text><text y="220.941" class="j">│</text><text x="2.004" y="220.941" class="f">demo-001</text><text x="15.03" y="220.941" class="j">│</text><text x="17.034" y="220.941" class="f">Should</text><text x="24.048" y="220.941" class="f">we</text><text x="31.062" y="220.941" class="j">│</text><text x="33.066" y="220.941" class="p">Strategy</text><text x="44.088" y="220.941" class="j">│</text><text x="46.092" y="220.941" class="p">MAJORITY</text><text x="57.114" y="220.941" class="j">│</text><text x="59.118" y="220.941" class="l">APPROVE</text><text x="68.136" y="220.941" class="j">│</text><text x="70.14" y="220.941" class="f">?</text><text x="79.158" y="220.941" class="j">│</text><text y="223.112" class="j">│</text><text x="15.03" y="223.112" class="j">│</text><text x="17.034" y="223.112" class="f">pivot</text><text x="23.046" y="223.112" class="f">from</text><text x="31.062" y="223.112" class="j">│</text><text x="44.088" y="223.112" class="j">│</text><text x="57.114" y="223.112" class="j">│</text><text x="68.136" y="223.112" class="j">│</text><text x="79.158" y="223.112" class="j">│</text><text y="225.283" class="j">│</text><text x="15.03" y="225.283" class="j">│</text><text x="17.034" y="225.283" class="f">B2C</text><text x="21.042" y="225.283" class="f">to</text><text x="24.048" y="225.283" class="f">B2B?</text><text x="31.062" y="225.283" class="j">│</text><text x="44.088" y="225.283" class="j">│</text><text x="57.114" y="225.283" class="j">│</text><text x="68.136" y="225.283" class="j">│</text><text x="79.158" y="225.283" class="j">│</text><use xlink:href="#7" y="225.784"/><text y="229.625" class="j">│</text><text x="2.004" y="229.625" class="f">test-mem-001</text><text x="15.03" y="229.625" class="j">│</text><text x="17.034" y="229.625" class="f">Acquire</text><text x="31.062" y="229.625" class="j">│</text><text x="33.066" y="229.625" class="p">Strategy</text><text x="44.088" y="229.625" class="j">│</text><text x="46.092" y="229.625" class="p">MAJORITY</text><text x="57.114" y="229.625" class="j">│</text><text x="59.118" y="229.625" class="s">NO</text><text x="68.136" y="229.625" class="j">│</text><text x="70.14" y="229.625" class="i">yes</text><text x="79.158" y="229.625" class="j">│</text><text y="231.796" class="j">│</text><text x="15.03" y="231.796" class="j">│</text><text x="17.034" y="231.796" class="f">struggling</text><text x="31.062" y="231.796" class="j">│</text><text x="44.088" y="231.796" class="j">│</text><text x="57.114" y="231.796" class="j">│</text><text x="68.136" y="231.796" class="j">│</text><text x="79.158" y="231.796" class="j">│</text><use xlink:href="#8" y="232.297"/><text y="236.138" class="j">│</text><text x="15.03" y="236.138" class="j">│</text><text x="17.034" y="236.138" class="f">with</text><text x="22.044" y="236.138" class="f">50k</text><text x="31.062" y="236.138" class="j">│</text><text x="44.088" y="236.138" class="j">│</text><text x="57.114" y="236.138" class="j">│</text><text x="68.136" y="236.138" class="j">│</text><text x="79.158" y="236.138" class="j">│</text><text y="238.309" class="j">│</text><text x="15.03" y="238.309" class="j">│</text><text x="17.034" y="238.309" class="f">users?</text><text x="31.062" y="238.309" class="j">│</text><text x="44.088" y="238.309" class="j">│</text><text x="57.114" y="238.309" class="j">│</text><text x="68.136" y="238.309" class="j">│</text><text x="79.158" y="238.309" class="j">│</text><use xlink:href="#7" y="238.81"/><text y="242.651" class="j">│</text><text x="2.004" y="242.651" class="f">test-mem-002</text><text x="15.03" y="242.651" class="j">│</text><text x="17.034" y="242.651" class="f">Acquire</text><text x="31.062" y="242.651" class="j">│</text><text x="33.066" y="242.651" class="p">Strategy</text><text x="44.088" y="242.651" class="j">│</text><text x="46.092" y="242.651" class="p">MAJORITY</text><text x="57.114" y="242.651" class="j">│</text><text x="59.118" y="242.651" class="l">YES</text><text x="68.136" y="242.651" class="j">│</text><text x="70.14" y="242.651" class="f">?</text><text x="79.158" y="242.651" class="j">│</text><use xlink:href="#8" y="243.152"/><text y="246.993" class="j">│</text><text x="15.03" y="246.993" class="j">│</text><text x="17.034" y="246.993" class="f">with</text><text x="22.044" y="246.993" class="f">key</text><text x="31.062" y="246.993" class="j">│</text><text x="44.088" y="246.993" class="j">│</text><text x="57.114" y="246.993" class="j">│</text><text x="68.136" y="246.993" class="j">│</text><text x="79.158" y="246.993" class="j">│</text><text y="249.164" class="j">│</text><text x="15.03" y="249.164" class="j">│</text><text x="17.034" y="249.164" class="f">patents</text><text x="25.05" y="249.164" class="f">for</text><text x="31.062" y="249.164" class="j">│</text><text x="44.088" y="249.164" class="j">│</text><text x="57.114" y="249.164" class="j">│</text><text x="68.136" y="249.164" class="j">│</text><text x="79.158" y="249.164" class="j">│</text><text y="251.335" class="j">│</text><text x="15.03" y="251.335" class="j">│</text><text x="17.034" y="251.335" class="f">$1.5M?</text><text x="31.062" y="251.335" class="j">│</text><text x="44.088" y="251.335" class="j">│</text><text x="57.114" y="251.335" class="j">│</text><text x="68.136" y="251.335" class="j">│</text><text x="79.158" y="251.335" class="j">│</text><use xlink:href="#7" y="251.836"/><text y="255.677" class="j">│</text><text x="2.004" y="255.677" class="f">test-mem-003</text><text x="15.03" y="255.677" class="j">│</text><text x="17.034" y="255.677" class="f">Counter-offer</text><text x="31.062" y="255.677" class="j">│</text><text x="33.066" y="255.677" class="p">Engineeri…</text><text x="44.088" y="255.677" class="j">│</text><text x="46.092" y="255.677" class="p">MAJORITY</text><text x="57.114" y="255.677" class="j">│</text><text x="59.118" y="255.677" class="l">YES</text><text x="68.136" y="255.677" class="j">│</text><text x="70.14" y="255.677" class="f">?</text><text x="79.158" y="255.677" class="j">│</text><text y="257.848" class="j">│</text><text x="15.03" y="257.848" class="j">│</text><text x="17.034" y="257.848" class="f">lead</text><text x="22.044" y="257.848" class="f">engineer</text><text x="31.062" y="257.848" class="j">│</text><text x="44.088" y="257.848" class="j">│</text><text x="57.114" y="257.848" class="j">│</text><text x="68.136" y="257.848" class="j">│</text><text x="79.158" y="257.848" class="j">│</text><text y="260.019" class="j">│</text><text x="15.03" y="260.019" class="j">│</text><text x="17.034" y="260.019" class="f">with</text><text x="22.044" y="260.019" class="f">40%</text><text x="31.062" y="260.019" class="j">│</text><text x="44.088" y="260.019" class="j">│</text><text x="57.114" y="260.019" class="j">│</text><text x="68.136" y="260.019" class="j">│</text><text x="79.158" y="260.019" class="j">│</text><text y="262.19" class="j">│</text><text x="15.03" y="262.19" class="j">│</text><text x="17.034" y="262.19" class="f">raise</text><text x="23.046" y="262.19" class="f">+</text><text x="31.062" y="262.19" class="j">│</text><text x="44.088" y="262.19" class="j">│</text><text x="57.114" y="262.19" class="j">│</text><text x="68.136" y="262.19" class="j">│</text><text x="79.158" y="262.19" class="j">│</text><text y="264.361" class="j">│</text><text x="15.03" y="264.361" class="j">│</text><text x="17.034" y="264.361" class="f">equity?</text><text x="31.062" y="264.361" class="j">│</text><text x="44.088" y="264.361" class="j">│</text><text x="57.114" y="264.361" class="j">│</text><text x="68.136" y="264.361" class="j">│</text><text x="79.158" y="264.361" class="j">│</text><text y="266.532" class="j">└──────────────┴───────────────┴────────────┴────────────┴──────────┴──────────┘</text><use xlink:href="#1" y="269.204"/><text y="273.045" class="f">│</text><text x="4.008" y="273.045" class="l">$</text><text x="6.012" y="273.045" class="m">swarm-agency</text><text x="19.038" y="273.045" class="m">--feedback</text><text x="30.06" y="273.045" class="m">demo-001</text><text x="39.078" y="273.045" class="m">yes</text><text x="79.158" y="273.045" class="f">│</text><use xlink:href="#2" y="273.546"/><text y="277.387" class="i">Feedback</text><text x="9.018" y="277.387" class="i">recorded</text><text x="18.036" y="277.387" class="i">for</text><text x="22.044" y="277.387" class="i">demo-</text><text x="27.054" y="277.387" class="l">001</text><text x="30.06" y="277.387" class="i">:</text><text x="32.064" y="277.387" class="i">correct</text><text y="281.729" class="A">╭─────────────────────────</text><text x="27.054" y="281.729" class="B">How</text><text x="31.062" y="281.729" class="B">Decision</text><text x="40.08" y="281.729" class="B">Memory</text><text x="47.094" y="281.729" class="B">Works</text><text x="53.106" y="281.729" class="A">──────────────────────────╮</text><text y="283.9" class="A">│</text><text x="3.006" y="283.9" class="f">When</text><text x="8.016" y="283.9" class="r">--memory</text><text x="17.034" y="283.9" class="f">is</text><text x="20.04" y="283.9" class="f">enabled,</text><text x="29.058" y="283.9" class="f">agents</text><text x="36.072" y="283.9" class="f">see</text><text x="40.08" y="283.9" class="f">prior</text><text x="46.092" y="283.9" class="f">decisions</text><text x="56.112" y="283.9" class="f">on</text><text x="59.118" y="283.9" class="f">similar</text><text x="67.134" y="283.9" class="f">topics</text><text x="79.158" y="283.9" class="A">│</text><text y="286.071" class="A">│</text><text x="3.006" y="286.071" class="f">and</text><text x="7.014" y="286.071" class="f">adjust</text><text x="14.028" y="286.071" class="f">confidence</text><text x="25.05" y="286.071" class="f">based</text><text x="31.062" y="286.071" class="f">on</text><text x="34.068" y="286.071" class="f">their</text><text x="40.08" y="286.071" class="f">track</text><text x="46.092" y="286.071" class="f">record.</text><text x="54.108" y="286.071" class="f">Past</text><text x="59.118" y="286.071" class="f">outcomes</text><text x="79.158" y="286.071" class="A">│</text><text y="288.242" class="A">│</text><text x="3.006" y="288.242" class="f">improve</text><text x="11.022" y="288.242" class="f">future</text><text x="18.036" y="288.242" class="f">debates</text><text x="26.052" y="288.242" class="f">—</text><text x="28.056" y="288.242" class="f">institutional</text><text x="42.084" y="288.242" class="f">memory</text><text x="49.098" y="288.242" class="f">that</text><text x="54.108" y="288.242" class="f">compounds.</text><text x="79.158" y="288.242" class="A">│</text><text y="290.413" class="A">╰──────────────────────────────────────────────────────────────────────────────╯</text></svg></svg></g></svg></svg>