<svg xmlns="http://www.w3.org/2000/svg" xmlns:xlink="http://www.w3.org/1999/xlink" width="840" height="2013.9"><rect width="840" height="2013.9" rx="5" ry="5" class="a"/><svg y="0%" x="0%"><circle cx="20" cy="20" r="6" fill="#ff5f58"/><circle cx="40" cy="20" r="6" fill="#ffbd2e"/><circle cx="60" cy="20" r="6" fill="#18c132"/></svg><svg height="1953.9" viewBox="0 0 80 195.39" width="800" x="15" xmlns="http://www.w3.org/2000/svg" xmlns:xlink="http://www.w3.org/1999/xlink" y="50"><style>.a{fill:#282d35}.f,.g,.h,.i{fill:#b9c0cb;white-space:pre}.g,.h,.i{fill:#66c2cd}.h,.i{fill:#73bef3}.i{fill:#a8cc8c}.k,.l{font-weight:700}.k{fill:#a8cc8c;white-space:pre}.l{fill:#b9bfca}.l,.m,.o,.p,.q{white-space:pre}.m{fill:#66c2cd;font-weight:700}.o,.p,.q{fill:#dbab79}.p,.q{font-weight:700}.q{fill:#b9c0cb}.r{fill:#d290e3}.r,.s,.t{white-space:pre}.s{fill:#e88388;font-weight:700}.t{fill:#b9bfca}.u{fill:#000087}.v,.w{white-space:pre}.v{fill:#fff;font-weight:700}.w{fill:#e88388}</style><g font-family="Monaco,Consolas,Menlo,'Bitstream Vera Sans Mono','Powerline Symbols',monospace" font-size="1.67"><defs><symbol id="1"><text y="1.67" class="f">╰──────────────────────────────────────────────────────────────────────────────╯</text></symbol><symbol id="2"><text y="1.67" class="g">│</text><text x="79.158" y="1.67" class="g">│</text></symbol><symbol id="3"><text y="1.67" class="f">│</text><text x="79.158" y="1.67" class="f">│</text></symbol><symbol id="4"><text x="7.014" y="1.67" class="h">├─────────────────┼──────────────────┼──────────┼────────────────┤</text></symbol><symbol id="5"><text y="1.67" class="i">│</text><text x="79.158" y="1.67" class="i">│</text></symbol><symbol id="a"><path fill="transparent" d="M0 0h80v91H0z"/></symbol></defs><path class="a" d="M0 0h80v195.39H0z"/><svg width="80"><svg><use xlink:href="#a"/><text y="1.67" class="f">╭──────────────────────────────────────────────────────────────────────────────╮</text><text y="3.841" class="f">│</text><text x="4.008" y="3.841" class="k">$</text><text x="6.012" y="3.841" class="l">swarm-agency</text><text x="19.038" y="3.841" class="l">ask</text><text x="23.046" y="3.841" class="l">&quot;Should</text><text x="31.062" y="3.841" class="l">we</text><text x="34.068" y="3.841" class="l">launch</text><text x="41.082" y="3.841" class="l">feature</text><text x="49.098" y="3.841" class="l">X?&quot;</text><text x="53.106" y="3.841" class="l">--department</text><text x="66.132" y="3.841" class="l">strategy</text><text x="79.158" y="3.841" class="f">│</text><use xlink:href="#1" y="4.342"/><text y="10.354" class="g">╭──────────────────────────────────</text><text x="36.072" y="10.354" class="m">QUESTION</text><text x="45.09" y="10.354" class="g">──────────────────────────────────╮</text><use xlink:href="#2" y="10.855"/><text y="14.696" class="g">│</text><path fill="#71bef2" d="M26.052 13.026h27v2.171h-27z"/><text x="26.052" y="14.696" class="l">Should we launch feature X?</text><text x="79.158" y="14.696" class="g">│</text><use xlink:href="#2" y="15.197"/><text y="19.038" class="g">╰─────────────────</text><text x="19.038" y="19.038" class="g">Department:</text><text x="31.062" y="19.038" class="g">Strategy</text><text x="40.08" y="19.038" class="g">|</text><text x="42.084" y="19.038" class="g">5</text><text x="44.088" y="19.038" class="g">agents</text><text x="51.102" y="19.038" class="g">|</text><text x="53.106" y="19.038" class="g">5</text><text x="55.11" y="19.038" class="g">models</text><text x="62.124" y="19.038" class="g">─────────────────╯</text><text y="23.38" class="o">──────────────────────────────</text><text x="31.062" y="23.38" class="p">Agent</text><text x="37.074" y="23.38" class="p">Deliberation</text><text x="50.1" y="23.38" class="o">──────────────────────────────</text><text y="27.722" class="f">╭─────────────────────</text><text x="23.046" y="27.722" class="q">Visionary</text><text x="33.066" y="27.722" class="f">(Chief</text><text x="40.08" y="27.722" class="f">Strategy</text><text x="49.098" y="27.722" class="f">Officer)</text><text x="58.116" y="27.722" class="f">─────────────────────╮</text><text y="29.893" class="f">│</text><text x="3.006" y="29.893" class="f">Feature</text><text x="11.022" y="29.893" class="f">X</text><text x="13.026" y="29.893" class="f">aligns</text><text x="20.04" y="29.893" class="f">with</text><text x="25.05" y="29.893" class="f">our</text><text x="29.058" y="29.893" class="f">3-year</text><text x="36.072" y="29.893" class="f">roadmap</text><text x="44.088" y="29.893" class="f">and</text><text x="48.096" y="29.893" class="f">creates</text><text x="56.112" y="29.893" class="f">a</text><text x="58.116" y="29.893" class="f">defensible</text><text x="69.138" y="29.893" class="f">moat</text><text x="74.148" y="29.893" class="f">in</text><text x="79.158" y="29.893" class="f">│</text><text y="32.064" class="f">│</text><text x="3.006" y="32.064" class="f">the</text><text x="7.014" y="32.064" class="f">mid-market</text><text x="18.036" y="32.064" class="f">segment.</text><text x="27.054" y="32.064" class="f">Competitors</text><text x="39.078" y="32.064" class="f">are</text><text x="43.086" y="32.064" class="f">6-12</text><text x="48.096" y="32.064" class="f">months</text><text x="55.11" y="32.064" class="f">behind</text><text x="62.124" y="32.064" class="f">on</text><text x="65.13" y="32.064" class="f">this</text><text x="79.158" y="32.064" class="f">│</text><text y="34.235" class="f">│</text><text x="3.006" y="34.235" class="f">capability.</text><text x="79.158" y="34.235" class="f">│</text><use xlink:href="#3" y="34.736"/><text y="38.577" class="f">│</text><text x="5.01" y="38.577" class="f">Position:</text><text x="15.03" y="38.577" class="k">APPROVE</text><text x="24.048" y="38.577" class="f">|</text><text x="27.054" y="38.577" class="f">Confidence:</text><text x="39.078" y="38.577" class="q">85%</text><text x="44.088" y="38.577" class="f">|</text><text x="47.094" y="38.577" class="f">Model:</text><text x="54.108" y="38.577" class="r">glm-4.7</text><text x="79.158" y="38.577" class="f">│</text><use xlink:href="#1" y="39.078"/><text y="42.919" class="f">╭───────────────────────</text><text x="25.05" y="42.919" class="q">DevilsAdvocate</text><text x="40.08" y="42.919" class="f">(Board</text><text x="47.094" y="42.919" class="f">Advisor)</text><text x="56.112" y="42.919" class="f">───────────────────────╮</text><text y="45.09" class="f">│</text><text x="3.006" y="45.09" class="f">Risk</text><text x="8.016" y="45.09" class="f">profile</text><text x="16.032" y="45.09" class="f">is</text><text x="19.038" y="45.09" class="f">unclear.</text><text x="28.056" y="45.09" class="f">We</text><text x="31.062" y="45.09" class="f">haven&apos;t</text><text x="39.078" y="45.09" class="f">validated</text><text x="49.098" y="45.09" class="f">demand</text><text x="56.112" y="45.09" class="f">beyond</text><text x="63.126" y="45.09" class="f">internal</text><text x="79.158" y="45.09" class="f">│</text><text y="47.261" class="f">│</text><text x="3.006" y="47.261" class="f">assumptions.</text><text x="16.032" y="47.261" class="f">Launch</text><text x="23.046" y="47.261" class="f">could</text><text x="29.058" y="47.261" class="f">cannibalize</text><text x="41.082" y="47.261" class="f">our</text><text x="45.09" y="47.261" class="f">core</text><text x="50.1" y="47.261" class="f">product&apos;s</text><text x="60.12" y="47.261" class="f">revenue</text><text x="68.136" y="47.261" class="f">by</text><text x="79.158" y="47.261" class="f">│</text><text y="49.432" class="f">│</text><text x="3.006" y="49.432" class="f">15-20%.</text><text x="79.158" y="49.432" class="f">│</text><use xlink:href="#3" y="49.933"/><text y="53.774" class="f">│</text><text x="5.01" y="53.774" class="f">Position:</text><text x="15.03" y="53.774" class="s">REJECT</text><text x="23.046" y="53.774" class="f">|</text><text x="26.052" y="53.774" class="f">Confidence:</text><text x="38.076" y="53.774" class="q">72%</text><text x="43.086" y="53.774" class="f">|</text><text x="46.092" y="53.774" class="f">Model:</text><text x="53.106" y="53.774" class="g">kimi-k2.5</text><text x="79.158" y="53.774" class="f">│</text><use xlink:href="#1" y="54.275"/><text y="58.116" class="f">╭──────────────────────────</text><text x="28.056" y="58.116" class="q">GrowthHacker</text><text x="41.082" y="58.116" class="f">(VP</text><text x="45.09" y="58.116" class="f">Growth)</text><text x="53.106" y="58.116" class="f">──────────────────────────╮</text><text y="60.287" class="f">│</text><text x="3.006" y="60.287" class="f">Market</text><text x="10.02" y="60.287" class="f">timing</text><text x="17.034" y="60.287" class="f">is</text><text x="20.04" y="60.287" class="f">ideal.</text><text x="27.054" y="60.287" class="f">TAM</text><text x="31.062" y="60.287" class="f">expands</text><text x="39.078" y="60.287" class="f">by</text><text x="42.084" y="60.287" class="f">$4.2B</text><text x="48.096" y="60.287" class="f">if</text><text x="51.102" y="60.287" class="f">we</text><text x="54.108" y="60.287" class="f">capture</text><text x="62.124" y="60.287" class="f">the</text><text x="66.132" y="60.287" class="f">prosumer</text><text x="79.158" y="60.287" class="f">│</text><text y="62.458" class="f">│</text><text x="3.006" y="62.458" class="f">segment.</text><text x="12.024" y="62.458" class="f">Feature</text><text x="20.04" y="62.458" class="f">X</text><text x="22.044" y="62.458" class="f">is</text><text x="25.05" y="62.458" class="f">the</text><text x="29.058" y="62.458" class="f">wedge</text><text x="35.07" y="62.458" class="f">product</text><text x="43.086" y="62.458" class="f">we</text><text x="46.092" y="62.458" class="f">need</text><text x="51.102" y="62.458" class="f">for</text><text x="55.11" y="62.458" class="f">bottom-up</text><text x="65.13" y="62.458" class="f">adoption.</text><text x="79.158" y="62.458" class="f">│</text><use xlink:href="#3" y="62.959"/><text y="66.8" class="f">│</text><text x="5.01" y="66.8" class="f">Position:</text><text x="15.03" y="66.8" class="k">APPROVE</text><text x="24.048" y="66.8" class="f">|</text><text x="27.054" y="66.8" class="f">Confidence:</text><text x="39.078" y="66.8" class="q">78%</text><text x="44.088" y="66.8" class="f">|</text><text x="47.094" y="66.8" class="f">Model:</text><text x="54.108" y="66.8" class="o">MiniMax-M2.5</text><text x="79.158" y="66.8" class="f">│</text><use xlink:href="#1" y="67.301"/><text y="71.142" class="f">╭───────────────────────────</text><text x="29.058" y="71.142" class="q">NumbersCruncher</text><text x="45.09" y="71.142" class="f">(CFO)</text><text x="51.102" y="71.142" class="f">────────────────────────────╮</text><text y="73.313" class="f">│</text><text x="3.006" y="73.313" class="f">Unit</text><text x="8.016" y="73.313" class="f">economics</text><text x="18.036" y="73.313" class="f">are</text><text x="22.044" y="73.313" class="f">promising</text><text x="32.064" y="73.313" class="f">but</text><text x="36.072" y="73.313" class="f">unproven.</text><text x="46.092" y="73.313" class="f">Need</text><text x="51.102" y="73.313" class="f">2,400</text><text x="57.114" y="73.313" class="f">paid</text><text x="62.124" y="73.313" class="f">conversions</text><text x="74.148" y="73.313" class="f">in</text><text x="79.158" y="73.313" class="f">│</text><text y="75.484" class="f">│</text><text x="3.006" y="75.484" class="f">Q3</text><text x="6.012" y="75.484" class="f">to</text><text x="9.018" y="75.484" class="f">hit</text><text x="13.026" y="75.484" class="f">break-even.</text><text x="25.05" y="75.484" class="f">Current</text><text x="33.066" y="75.484" class="f">projections</text><text x="45.09" y="75.484" class="f">show</text><text x="50.1" y="75.484" class="f">1,800-3,200</text><text x="62.124" y="75.484" class="f">range</text><text x="68.136" y="75.484" class="f">--</text><text x="71.142" y="75.484" class="f">too</text><text x="79.158" y="75.484" class="f">│</text><text y="77.655" class="f">│</text><text x="3.006" y="77.655" class="f">wide.</text><text x="79.158" y="77.655" class="f">│</text><use xlink:href="#3" y="78.156"/><text y="81.997" class="f">│</text><text x="5.01" y="81.997" class="f">Position:</text><text x="15.03" y="81.997" class="p">NEUTRAL</text><text x="24.048" y="81.997" class="f">|</text><text x="27.054" y="81.997" class="f">Confidence:</text><text x="39.078" y="81.997" class="q">45%</text><text x="44.088" y="81.997" class="f">|</text><text x="47.094" y="81.997" class="f">Model:</text><text x="54.108" y="81.997" class="i">qwen3-coder-plus</text><text x="79.158" y="81.997" class="f">│</text><use xlink:href="#1" y="82.498"/><text y="86.339" class="f">╭──────────────────────────────</text><text x="32.064" y="86.339" class="q">Pragmatist</text><text x="43.086" y="86.339" class="f">(COO)</text><text x="49.098" y="86.339" class="f">──────────────────────────────╮</text><text y="88.51" class="f">│</text><text x="3.006" y="88.51" class="f">Operationally</text><text x="17.034" y="88.51" class="f">feasible</text><text x="26.052" y="88.51" class="f">with</text><text x="31.062" y="88.51" class="f">current</text><text x="39.078" y="88.51" class="f">team</text><text x="44.088" y="88.51" class="f">if</text><text x="47.094" y="88.51" class="f">we</text><text x="50.1" y="88.51" class="f">defer</text><text x="56.112" y="88.51" class="f">the</text><text x="60.12" y="88.51" class="f">Platform</text><text x="69.138" y="88.51" class="f">v2</text><text x="79.158" y="88.51" class="f">│</text><text y="90.681" class="f">│</text><text x="3.006" y="90.681" class="f">migration</text><text x="13.026" y="90.681" class="f">by</text><text x="16.032" y="90.681" class="f">one</text><text x="20.04" y="90.681" class="f">sprint.</text><text x="28.056" y="90.681" class="f">Recommend</text><text x="38.076" y="90.681" class="f">phased</text><text x="45.09" y="90.681" class="f">rollout:</text><text x="54.108" y="90.681" class="f">beta</text><text x="59.118" y="90.681" class="f">in</text><text x="62.124" y="90.681" class="f">Q2,</text><text x="66.132" y="90.681" class="f">GA</text><text x="69.138" y="90.681" class="f">in</text><text x="72.144" y="90.681" class="f">Q3.</text><text x="79.158" y="90.681" class="f">│</text><use xlink:href="#3" y="91.182"/><text y="95.023" class="f">│</text><text x="5.01" y="95.023" class="f">Position:</text><text x="15.03" y="95.023" class="k">APPROVE</text><text x="24.048" y="95.023" class="f">|</text><text x="27.054" y="95.023" class="f">Confidence:</text><text x="39.078" y="95.023" class="q">68%</text><text x="44.088" y="95.023" class="f">|</text><text x="47.094" y="95.023" class="f">Model:</text><text x="54.108" y="95.023" class="h">qwen3.5-plus</text><text x="79.158" y="95.023" class="f">│</text><use xlink:href="#1" y="95.524"/><text y="101.536" class="t">─────────────────────────────────</text><text x="34.068" y="101.536" class="q">Vote</text><text x="39.078" y="101.536" class="q">Summary</text><text x="47.094" y="101.536" class="t">─────────────────────────────────</text><text x="7.014" y="105.878" class="h">┏━━━━━━━━━━━━━━━━━┳━━━━━━━━━━━━━━━━━━┳━━━━━━━━━━┳━━━━━━━━━━━━━━━━┓</text><text x="7.014" y="108.049" class="h">┃</text><path class="u" d="M8.016 106.379h17v2.171h-17z"/><text x="8.016" y="108.049" class="v">Agent</text><text x="25.05" y="108.049" class="h">┃</text><path class="u" d="M26.052 106.379h18v2.171h-18z"/><text x="26.052" y="108.049" class="v">Model</text><text x="44.088" y="108.049" class="h">┃</text><path class="u" d="M45.09 106.379h10v2.171h-10z"/><text x="45.09" y="108.049" class="v">Position</text><text x="55.11" y="108.049" class="h">┃</text><path class="u" d="M56.112 106.379h16v2.171h-16z"/><text x="56.112" y="108.049" class="v">Confidence</text><text x="72.144" y="108.049" class="h">┃</text><text x="7.014" y="110.22" class="h">┡━━━━━━━━━━━━━━━━━╇━━━━━━━━━━━━━━━━━━╇━━━━━━━━━━╇━━━━━━━━━━━━━━━━┩</text><text x="7.014" y="112.391" class="h">│</text><text x="9.018" y="112.391" class="m">Visionary</text><text x="25.05" y="112.391" class="h">│</text><text x="27.054" y="112.391" class="r">glm-4.7</text><text x="44.088" y="112.391" class="h">│</text><text x="46.092" y="112.391" class="k">APPROVE</text><text x="55.11" y="112.391" class="h">│</text><text x="57.114" y="112.391" class="i">████████░░</text><text x="68.136" y="112.391" class="f">85%</text><text x="72.144" y="112.391" class="h">│</text><use xlink:href="#4" y="112.892"/><text x="7.014" y="116.733" class="h">│</text><text x="9.018" y="116.733" class="m">DevilsAdvocate</text><text x="25.05" y="116.733" class="h">│</text><text x="27.054" y="116.733" class="g">kimi-k2.5</text><text x="44.088" y="116.733" class="h">│</text><text x="47.094" y="116.733" class="s">REJECT</text><text x="55.11" y="116.733" class="h">│</text><text x="57.114" y="116.733" class="i">███████░░░</text><text x="68.136" y="116.733" class="f">72%</text><text x="72.144" y="116.733" class="h">│</text><use xlink:href="#4" y="117.234"/><text x="7.014" y="121.075" class="h">│</text><text x="9.018" y="121.075" class="m">GrowthHacker</text><text x="25.05" y="121.075" class="h">│</text><text x="27.054" y="121.075" class="o">MiniMax-M2.5</text><text x="44.088" y="121.075" class="h">│</text><text x="46.092" y="121.075" class="k">APPROVE</text><text x="55.11" y="121.075" class="h">│</text><text x="57.114" y="121.075" class="i">███████░░░</text><text x="68.136" y="121.075" class="f">78%</text><text x="72.144" y="121.075" class="h">│</text><use xlink:href="#4" y="121.576"/><text x="7.014" y="125.417" class="h">│</text><text x="9.018" y="125.417" class="m">NumbersCruncher</text><text x="25.05" y="125.417" class="h">│</text><text x="27.054" y="125.417" class="i">qwen3-coder-plus</text><text x="44.088" y="125.417" class="h">│</text><text x="46.092" y="125.417" class="p">NEUTRAL</text><text x="55.11" y="125.417" class="h">│</text><text x="57.114" y="125.417" class="w">████░░░░░░</text><text x="68.136" y="125.417" class="f">45%</text><text x="72.144" y="125.417" class="h">│</text><use xlink:href="#4" y="125.918"/><text x="7.014" y="129.759" class="h">│</text><text x="9.018" y="129.759" class="m">Pragmatist</text><text x="25.05" y="129.759" class="h">│</text><text x="27.054" y="129.759" class="h">qwen3.5-plus</text><text x="44.088" y="129.759" class="h">│</text><text x="46.092" y="129.759" class="k">APPROVE</text><text x="55.11" y="129.759" class="h">│</text><text x="57.114" y="129.759" class="o">██████░░░░</text><text x="68.136" y="129.759" class="f">68%</text><text x="72.144" y="129.759" class="h">│</text><text x="7.014" y="131.93" class="h">└─────────────────┴──────────────────┴──────────┴────────────────┘</text><path fill="#a8cc8c" d="M18.036 134.602h14v2.171h-14z"/><text x="18.036" y="136.272" class="l">APPROVE: 3</text><path fill="#e88388" d="M34.068 134.602h13v2.171h-13z"/><text x="34.068" y="136.272" class="l">REJECT: 1</text><path fill="#d75f00" d="M49.098 134.602h12v2.171h-12z"/><text x="49.098" y="136.272" class="l">NEUTRAL: 1</text><text y="140.614" class="i">╭──────────────────────────────</text><text x="32.064" y="140.614" class="l">AGENCY</text><text x="39.078" y="140.614" class="l">DECISION</text><text x="48.096" y="140.614" class="i">───────────────────────────────╮</text><use xlink:href="#5" y="141.115"/><text y="144.956" class="i">│</text><text x="27.054" y="144.956" class="p">MAJORITY:</text><text x="37.074" y="144.956" class="k">APPROVE</text><text x="45.09" y="144.956" class="l">(3-1-1)</text><text x="79.158" y="144.956" class="i">│</text><use xlink:href="#5" y="145.457"/><text y="149.298" class="i">╰──────────────────────────────────────────────────────────────────────────────╯</text><text y="153.64" class="f">╭──────────────────────────────────</text><text x="36.072" y="153.64" class="q">Summary</text><text x="44.088" y="153.64" class="f">───────────────────────────────────╮</text><text y="155.811" class="f">│</text><text x="3.006" y="155.811" class="f">The</text><text x="7.014" y="155.811" class="f">Strategy</text><text x="16.032" y="155.811" class="f">department</text><text x="27.054" y="155.811" class="f">recommends</text><text x="38.076" y="155.811" class="f">APPROVAL</text><text x="47.094" y="155.811" class="f">with</text><text x="52.104" y="155.811" class="f">conditions.</text><text x="64.128" y="155.811" class="f">3</text><text x="66.132" y="155.811" class="f">of</text><text x="69.138" y="155.811" class="f">5</text><text x="71.142" y="155.811" class="f">agents</text><text x="79.158" y="155.811" class="f">│</text><text y="157.982" class="f">│</text><text x="3.006" y="157.982" class="f">support</text><text x="11.022" y="157.982" class="f">launch</text><text x="18.036" y="157.982" class="f">(Visionary,</text><text x="30.06" y="157.982" class="f">GrowthHacker,</text><text x="44.088" y="157.982" class="f">Pragmatist),</text><text x="57.114" y="157.982" class="f">1</text><text x="59.118" y="157.982" class="f">rejects</text><text x="79.158" y="157.982" class="f">│</text><text y="160.153" class="f">│</text><text x="3.006" y="160.153" class="f">(DevilsAdvocate</text><text x="19.038" y="160.153" class="f">citing</text><text x="26.052" y="160.153" class="f">unvalidated</text><text x="38.076" y="160.153" class="f">risk),</text><text x="45.09" y="160.153" class="f">and</text><text x="49.098" y="160.153" class="f">1</text><text x="51.102" y="160.153" class="f">is</text><text x="54.108" y="160.153" class="f">neutral</text><text x="79.158" y="160.153" class="f">│</text><text y="162.324" class="f">│</text><text x="3.006" y="162.324" class="f">(NumbersCruncher</text><text x="20.04" y="162.324" class="f">requesting</text><text x="31.062" y="162.324" class="f">tighter</text><text x="39.078" y="162.324" class="f">financial</text><text x="49.098" y="162.324" class="f">projections).</text><text x="63.126" y="162.324" class="f">Recommended</text><text x="79.158" y="162.324" class="f">│</text><text y="164.495" class="f">│</text><text x="3.006" y="164.495" class="f">path:</text><text x="9.018" y="164.495" class="f">phased</text><text x="16.032" y="164.495" class="f">rollout</text><text x="24.048" y="164.495" class="f">with</text><text x="29.058" y="164.495" class="f">market</text><text x="36.072" y="164.495" class="f">validation</text><text x="47.094" y="164.495" class="f">gate</text><text x="52.104" y="164.495" class="f">before</text><text x="59.118" y="164.495" class="f">GA.</text><text x="79.158" y="164.495" class="f">│</text><use xlink:href="#1" y="164.996"/><text y="171.008" class="s">Dissenting</text><text x="11.022" y="171.008" class="s">Views:</text><text x="2.004" y="173.179" class="w">&gt;</text><text x="4.008" y="173.179" class="f">DevilsAdvocate:</text><text x="20.04" y="173.179" class="f">No</text><text x="23.046" y="173.179" class="f">external</text><text x="32.064" y="173.179" class="f">demand</text><text x="39.078" y="173.179" class="f">validation</text><text x="50.1" y="173.179" class="f">--</text><text x="53.106" y="173.179" class="f">launching</text><text x="63.126" y="173.179" class="f">on</text><text x="66.132" y="173.179" class="f">assumptions</text><text y="175.35" class="f">alone.</text><text x="2.004" y="177.521" class="w">&gt;</text><text x="4.008" y="177.521" class="f">NumbersCruncher:</text><text x="21.042" y="177.521" class="f">Financial</text><text x="31.062" y="177.521" class="f">projections</text><text x="43.086" y="177.521" class="f">need</text><text x="48.096" y="177.521" class="f">tighter</text><text x="56.112" y="177.521" class="f">confidence</text><text x="67.134" y="177.521" class="f">interval</text><text y="179.692" class="f">before</text><text x="7.014" y="179.692" class="f">committing</text><text x="18.036" y="179.692" class="f">full</text><text x="23.046" y="179.692" class="f">resources.</text><text y="184.034" class="f">Confidence:</text><text x="12.024" y="184.034" class="m">72.0</text><text x="16.032" y="184.034" class="f">%</text><text x="18.036" y="184.034" class="f">|</text><text x="20.04" y="184.034" class="f">Duration:</text><text x="30.06" y="184.034" class="m">3.</text><text x="32.064" y="184.034" class="f">2s</text><text x="35.07" y="184.034" class="f">|</text><text x="37.074" y="184.034" class="f">Models</text><text x="44.088" y="184.034" class="f">used:</text><text x="50.1" y="184.034" class="f">glm-</text><text x="54.108" y="184.034" class="m">4.7</text><text x="57.114" y="184.034" class="f">,</text><text x="59.118" y="184.034" class="f">kimi-k2.</text><text x="67.134" y="184.034" class="m">5</text><text x="68.136" y="184.034" class="f">,</text><text y="186.205" class="f">MiniMax-M2.</text><text x="11.022" y="186.205" class="m">5</text><text x="12.024" y="186.205" class="f">,</text><text x="14.028" y="186.205" class="f">qwen3-coder-plus,</text><text x="32.064" y="186.205" class="f">qwen3.</text><text x="38.076" y="186.205" class="m">5</text><text x="39.078" y="186.205" class="f">-plus</text><text y="192.718" class="f">Saved</text><text x="6.012" y="192.718" class="f">ANSI</text><text x="11.022" y="192.718" class="f">output</text><text x="18.036" y="192.718" class="f">to</text><text x="21.042" y="192.718" class="f">/root/swarm-agency/demo/demo_output_ansi.txt</text><text y="194.889" class="f">Saved</text><text x="6.012" y="194.889" class="f">plain</text><text x="12.024" y="194.889" class="f">text</text><text x="17.034" y="194.889" class="f">output</text><text x="24.048" y="194.889" class="f">to</text><text x="27.054" y="194.889" class="f">/root/swarm-agency/demo/demo_output.txt</text></svg></svg></g></svg></svg>