<svg xmlns="http://www.w3.org/2000/svg" xmlns:xlink="http://www.w3.org/1999/xlink" width="840" height="2013.9"><rect width="840" height="2013.9" rx="5" ry="5" class="a"/><svg y="0%" x="0%"><circle cx="20" cy="20" r="6" fill="#ff5f58"/><circle cx="40" cy="20" r="6" fill="#ffbd2e"/><circle cx="60" cy="20" r="6" fill="#18c132"/></svg><svg height="1953.9" viewBox="0 0 80 195.39" width="800" x="15" xmlns="http://www.w3.org/2000/svg" xmlns:xlink="http://www.w3.org/1999/xlink" y="50"><style>.a{fill:#282d35}.f,.g,.h,.i{fill:#b9c0cb;white-space:pre}.g,.h,.i{fill:#66c2cd}.h,.i{fill:#73bef3}.i{fill:#a8cc8c}.k,.l{font-weight:700}.k{fill:#a8cc8c;white-space:pre}.l{fill:#b9bfca}.l,.m,.o,.p,.q{white-space:pre}.m{fill:#66c2cd;font-weight:700}.o,.p,.q{fill:#dbab79}.p,.q{font-weight:700}.q{fill:#b9c0cb}.r{fill:#d290e3}.r,.s,.t{white-space:pre}.s{fill:#e88388;font-weight:700}.t{fill:#b9bfca}.u{fill:#000087}.v,.w{white-space:pre}.v{fill:#fff;font-weight:700}.w{fill:#e88388}</style><g font-family="Monaco,Consolas,Menlo,'Bitstream Vera Sans Mono','Powerline Symbols',monospace" font-size="1.67"><defs><symbol id="1"><text y="1.67" class="f">╰──────────────────────────────────────────────────────────────────────────────╯</text></symbol><symbol id="2"><text y="1.67" class="g">│</text><text x="79.158" y="1.67" class="g">│</text></symbol><symbol id="3"><text y="1.67" class="f">│</text><text x="79.158" y="1.67" class="f">│</text></symbol><symbol id="4"><text x="7.014" y="1.67" class="h">├─────────────────┼──────────────────┼──────────┼────────────────┤</text></symbol><symbol id="5"><text y="1.67" class="i">│</text><text x="79.158" y="1.67" class="i">│</text></symbol><symbol id="a"><path fill="transparent" d="M0 0h80v91H0z"/></symbol></defs><path class="a" d="M0 0h80v195.39H0z"/><svg width="80"><svg><use xlink:href="#a"/><text y="1.67" class="f">│</text><text x="4.008" y="1.67" class="k">$</text><text x="6.012" y="1.67" class="l">swarm-agency</text><text x="19.038" y="1.67" class="l">--demo</text><text x="26.052" y="1.67" class="l">startup-pivot</text><text x="79.158" y="1.67" class="f">│</text><use xlink:href="#1" y="2.171"/><text y="8.183" class="g">╭──────────────────────────────────</text><text x="36.072" y="8.183" class="m">QUESTION</text><text x="45.09" y="8.183" class="g">──────────────────────────────────╮</text><use xlink:href="#2" y="8.684"/><text y="12.525" class="g">│</text><path fill="#71bef2" d="M24.048 10.855h32v2.171h-32z"/><text x="24.048" y="12.525" class="l">Should we pivot from B2C to B2B?</text><text x="79.158" y="12.525" class="g">│</text><use xlink:href="#2" y="13.026"/><text y="16.867" class="g">╰─────────────────</text><text x="19.038" y="16.867" class="g">Department:</text><text x="31.062" y="16.867" class="g">Strategy</text><text x="40.08" y="16.867" class="g">|</text><text x="42.084" y="16.867" class="g">5</text><text x="44.088" y="16.867" class="g">agents</text><text x="51.102" y="16.867" class="g">|</text><text x="53.106" y="16.867" class="g">5</text><text x="55.11" y="16.867" class="g">models</text><text x="62.124" y="16.867" class="g">─────────────────╯</text><text y="19.038" class="f">Context:</text><text x="9.018" y="19.038" class="f">B2C</text><text x="13.026" y="19.038" class="f">growth</text><text x="20.04" y="19.038" class="f">flat</text><text x="25.05" y="19.038" class="f">at</text><text x="28.056" y="19.038" class="f">12k</text><text x="32.064" y="19.038" class="f">MAU</text><text x="36.072" y="19.038" class="f">for</text><text x="40.08" y="19.038" class="m">6</text><text x="42.084" y="19.038" class="f">months.</text><text x="50.1" y="19.038" class="f">Enterprise</text><text x="61.122" y="19.038" class="f">inbound</text><text x="69.138" y="19.038" class="f">up</text><text x="72.144" y="19.038" class="f">3x.</text><text x="76.152" y="19.038" class="f">Team</text><text y="21.209" class="f">of</text><text x="3.006" y="21.209" class="m">8</text><text x="4.008" y="21.209" class="f">.</text><text x="6.012" y="21.209" class="m">14</text><text x="9.018" y="21.209" class="f">months</text><text x="16.032" y="21.209" class="f">runway.</text><text y="25.551" class="o">──────────────────────────────</text><text x="31.062" y="25.551" class="p">Agent</text><text x="37.074" y="25.551" class="p">Deliberation</text><text x="50.1" y="25.551" class="o">──────────────────────────────</text><text y="29.893" class="f">╭─────────────────────────────────</text><text x="35.07" y="29.893" class="q">Visionary</text><text x="45.09" y="29.893" class="f">──────────────────────────────────╮</text><text y="32.064" class="f">│</text><text x="3.006" y="32.064" class="f">B2B</text><text x="7.014" y="32.064" class="f">creates</text><text x="15.03" y="32.064" class="f">defensible</text><text x="26.052" y="32.064" class="f">revenue.</text><text x="35.07" y="32.064" class="f">Enterprise</text><text x="46.092" y="32.064" class="f">contracts</text><text x="56.112" y="32.064" class="f">=</text><text x="58.116" y="32.064" class="f">predictable</text><text x="70.14" y="32.064" class="f">ARR.</text><text x="79.158" y="32.064" class="f">│</text><text y="34.235" class="f">│</text><text x="3.006" y="34.235" class="f">B2C</text><text x="7.014" y="34.235" class="f">is</text><text x="10.02" y="34.235" class="f">a</text><text x="12.024" y="34.235" class="f">war</text><text x="16.032" y="34.235" class="f">of</text><text x="19.038" y="34.235" class="f">attrition</text><text x="29.058" y="34.235" class="f">we</text><text x="32.064" y="34.235" class="f">can&apos;t</text><text x="38.076" y="34.235" class="f">win</text><text x="42.084" y="34.235" class="f">at</text><text x="45.09" y="34.235" class="f">this</text><text x="50.1" y="34.235" class="f">scale.</text><text x="79.158" y="34.235" class="f">│</text><use xlink:href="#3" y="34.736"/><text y="38.577" class="f">│</text><text x="5.01" y="38.577" class="f">Position:</text><text x="15.03" y="38.577" class="k">APPROVE</text><text x="24.048" y="38.577" class="f">|</text><text x="27.054" y="38.577" class="f">Confidence:</text><text x="39.078" y="38.577" class="q">88%</text><text x="44.088" y="38.577" class="f">|</text><text x="47.094" y="38.577" class="f">Model:</text><text x="54.108" y="38.577" class="r">glm-4.7</text><text x="79.158" y="38.577" class="f">│</text><use xlink:href="#1" y="39.078"/><text y="42.919" class="f">╭───────────────────────────────</text><text x="33.066" y="42.919" class="q">DevilsAdvocate</text><text x="48.096" y="42.919" class="f">───────────────────────────────╮</text><text y="45.09" class="f">│</text><text x="3.006" y="45.09" class="f">Pivots</text><text x="10.02" y="45.09" class="f">kill</text><text x="15.03" y="45.09" class="f">startups</text><text x="24.048" y="45.09" class="f">more</text><text x="29.058" y="45.09" class="f">often</text><text x="35.07" y="45.09" class="f">than</text><text x="40.08" y="45.09" class="f">they</text><text x="45.09" y="45.09" class="f">save</text><text x="50.1" y="45.09" class="f">them.</text><text x="56.112" y="45.09" class="f">We</text><text x="59.118" y="45.09" class="f">have</text><text x="64.128" y="45.09" class="f">no</text><text x="67.134" y="45.09" class="f">enterprise</text><text x="79.158" y="45.09" class="f">│</text><text y="47.261" class="f">│</text><text x="3.006" y="47.261" class="f">sales</text><text x="9.018" y="47.261" class="f">motion,</text><text x="17.034" y="47.261" class="f">no</text><text x="20.04" y="47.261" class="f">SOC</text><text x="24.048" y="47.261" class="f">2,</text><text x="27.054" y="47.261" class="f">no</text><text x="30.06" y="47.261" class="f">SLAs.</text><text x="36.072" y="47.261" class="f">We&apos;d</text><text x="41.082" y="47.261" class="f">be</text><text x="44.088" y="47.261" class="f">starting</text><text x="53.106" y="47.261" class="f">from</text><text x="58.116" y="47.261" class="f">zero</text><text x="63.126" y="47.261" class="f">with</text><text x="68.136" y="47.261" class="f">14</text><text x="71.142" y="47.261" class="f">months</text><text x="79.158" y="47.261" class="f">│</text><text y="49.432" class="f">│</text><text x="3.006" y="49.432" class="f">runway.</text><text x="79.158" y="49.432" class="f">│</text><use xlink:href="#3" y="49.933"/><text y="53.774" class="f">│</text><text x="5.01" y="53.774" class="f">Position:</text><text x="15.03" y="53.774" class="s">REJECT</text><text x="23.046" y="53.774" class="f">|</text><text x="26.052" y="53.774" class="f">Confidence:</text><text x="38.076" y="53.774" class="q">76%</text><text x="43.086" y="53.774" class="f">|</text><text x="46.092" y="53.774" class="f">Model:</text><text x="53.106" y="53.774" class="g">kimi-k2.5</text><text x="79.158" y="53.774" class="f">│</text><use xlink:href="#1" y="54.275"/><text y="58.116" class="f">╭────────────────────────────────</text><text x="34.068" y="58.116" class="q">GrowthHacker</text><text x="47.094" y="58.116" class="f">────────────────────────────────╮</text><text y="60.287" class="f">│</text><text x="3.006" y="60.287" class="f">B2B</text><text x="7.014" y="60.287" class="f">ACV</text><text x="11.022" y="60.287" class="f">of</text><text x="14.028" y="60.287" class="f">$24k</text><text x="19.038" y="60.287" class="f">vs</text><text x="22.044" y="60.287" class="f">B2C</text><text x="26.052" y="60.287" class="f">LTV</text><text x="30.06" y="60.287" class="f">of</text><text x="33.066" y="60.287" class="f">$180.</text><text x="39.078" y="60.287" class="f">The</text><text x="43.086" y="60.287" class="f">math</text><text x="48.096" y="60.287" class="f">is</text><text x="51.102" y="60.287" class="f">obvious.</text><text x="60.12" y="60.287" class="f">50</text><text x="63.126" y="60.287" class="f">enterprise</text><text x="79.158" y="60.287" class="f">│</text><text y="62.458" class="f">│</text><text x="3.006" y="62.458" class="f">customers</text><text x="13.026" y="62.458" class="f">=</text><text x="15.03" y="62.458" class="f">$1.2M</text><text x="21.042" y="62.458" class="f">ARR.</text><text x="26.052" y="62.458" class="f">We</text><text x="29.058" y="62.458" class="f">need</text><text x="34.068" y="62.458" class="f">6,700</text><text x="40.08" y="62.458" class="f">B2C</text><text x="44.088" y="62.458" class="f">users</text><text x="50.1" y="62.458" class="f">for</text><text x="54.108" y="62.458" class="f">the</text><text x="58.116" y="62.458" class="f">same</text><text x="63.126" y="62.458" class="f">revenue.</text><text x="79.158" y="62.458" class="f">│</text><use xlink:href="#3" y="62.959"/><text y="66.8" class="f">│</text><text x="5.01" y="66.8" class="f">Position:</text><text x="15.03" y="66.8" class="k">APPROVE</text><text x="24.048" y="66.8" class="f">|</text><text x="27.054" y="66.8" class="f">Confidence:</text><text x="39.078" y="66.8" class="q">72%</text><text x="44.088" y="66.8" class="f">|</text><text x="47.094" y="66.8" class="f">Model:</text><text x="54.108" y="66.8" class="o">MiniMax-M2.5</text><text x="79.158" y="66.8" class="f">│</text><use xlink:href="#1" y="67.301"/><text y="71.142" class="f">╭──────────────────────────────</text><text x="32.064" y="71.142" class="q">NumbersCruncher</text><text x="48.096" y="71.142" class="f">───────────────────────────────╮</text><text y="73.313" class="f">│</text><text x="3.006" y="73.313" class="f">The</text><text x="7.014" y="73.313" class="f">unit</text><text x="12.024" y="73.313" class="f">economics</text><text x="22.044" y="73.313" class="f">favor</text><text x="28.056" y="73.313" class="f">B2B</text><text x="32.064" y="73.313" class="f">but</text><text x="36.072" y="73.313" class="f">we</text><text x="39.078" y="73.313" class="f">have</text><text x="44.088" y="73.313" class="f">zero</text><text x="49.098" y="73.313" class="f">data</text><text x="54.108" y="73.313" class="f">on</text><text x="57.114" y="73.313" class="f">enterprise</text><text x="68.136" y="73.313" class="f">sales</text><text x="79.158" y="73.313" class="f">│</text><text y="75.484" class="f">│</text><text x="3.006" y="75.484" class="f">cycle</text><text x="9.018" y="75.484" class="f">length,</text><text x="17.034" y="75.484" class="f">churn,</text><text x="24.048" y="75.484" class="f">or</text><text x="27.054" y="75.484" class="f">implementation</text><text x="42.084" y="75.484" class="f">costs.</text><text x="49.098" y="75.484" class="f">Projecting</text><text x="60.12" y="75.484" class="f">ARR</text><text x="64.128" y="75.484" class="f">from</text><text x="69.138" y="75.484" class="f">3</text><text x="79.158" y="75.484" class="f">│</text><text y="77.655" class="f">│</text><text x="3.006" y="77.655" class="f">inbound</text><text x="11.022" y="77.655" class="f">emails</text><text x="18.036" y="77.655" class="f">is</text><text x="21.042" y="77.655" class="f">irresponsible.</text><text x="79.158" y="77.655" class="f">│</text><use xlink:href="#3" y="78.156"/><text y="81.997" class="f">│</text><text x="5.01" y="81.997" class="f">Position:</text><text x="15.03" y="81.997" class="p">NEUTRAL</text><text x="24.048" y="81.997" class="f">|</text><text x="27.054" y="81.997" class="f">Confidence:</text><text x="39.078" y="81.997" class="q">41%</text><text x="44.088" y="81.997" class="f">|</text><text x="47.094" y="81.997" class="f">Model:</text><text x="54.108" y="81.997" class="i">qwen3-coder-plus</text><text x="79.158" y="81.997" class="f">│</text><use xlink:href="#1" y="82.498"/><text y="86.339" class="f">╭─────────────────────────────────</text><text x="35.07" y="86.339" class="q">Pragmatist</text><text x="46.092" y="86.339" class="f">─────────────────────────────────╮</text><text y="88.51" class="f">│</text><text x="3.006" y="88.51" class="f">Hybrid</text><text x="10.02" y="88.51" class="f">approach:</text><text x="20.04" y="88.51" class="f">keep</text><text x="25.05" y="88.51" class="f">B2C</text><text x="29.058" y="88.51" class="f">running</text><text x="37.074" y="88.51" class="f">on</text><text x="40.08" y="88.51" class="f">autopilot,</text><text x="51.102" y="88.51" class="f">dedicate</text><text x="60.12" y="88.51" class="f">5</text><text x="62.124" y="88.51" class="f">of</text><text x="65.13" y="88.51" class="f">8</text><text x="67.134" y="88.51" class="f">engineers</text><text x="79.158" y="88.51" class="f">│</text><text y="90.681" class="f">│</text><text x="3.006" y="90.681" class="f">to</text><text x="6.012" y="90.681" class="f">B2B</text><text x="10.02" y="90.681" class="f">pilot.</text><text x="17.034" y="90.681" class="f">Test</text><text x="22.044" y="90.681" class="f">with</text><text x="27.054" y="90.681" class="f">3</text><text x="29.058" y="90.681" class="f">enterprise</text><text x="40.08" y="90.681" class="f">prospects</text><text x="50.1" y="90.681" class="f">over</text><text x="55.11" y="90.681" class="f">90</text><text x="58.116" y="90.681" class="f">days</text><text x="63.126" y="90.681" class="f">before</text><text x="70.14" y="90.681" class="f">full</text><text x="79.158" y="90.681" class="f">│</text><text y="92.852" class="f">│</text><text x="3.006" y="92.852" class="f">commitment.</text><text x="79.158" y="92.852" class="f">│</text><use xlink:href="#3" y="93.353"/><text y="97.194" class="f">│</text><text x="5.01" y="97.194" class="f">Position:</text><text x="15.03" y="97.194" class="k">APPROVE</text><text x="24.048" y="97.194" class="f">|</text><text x="27.054" y="97.194" class="f">Confidence:</text><text x="39.078" y="97.194" class="q">65%</text><text x="44.088" y="97.194" class="f">|</text><text x="47.094" y="97.194" class="f">Model:</text><text x="54.108" y="97.194" class="h">qwen3.5-plus</text><text x="79.158" y="97.194" class="f">│</text><use xlink:href="#1" y="97.695"/><text y="103.707" class="t">─────────────────────────────────</text><text x="34.068" y="103.707" class="q">Vote</text><text x="39.078" y="103.707" class="q">Summary</text><text x="47.094" y="103.707" class="t">─────────────────────────────────</text><text x="7.014" y="108.049" class="h">┏━━━━━━━━━━━━━━━━━┳━━━━━━━━━━━━━━━━━━┳━━━━━━━━━━┳━━━━━━━━━━━━━━━━┓</text><text x="7.014" y="110.22" class="h">┃</text><path class="u" d="M8.016 108.55h17v2.171h-17z"/><text x="8.016" y="110.22" class="v">Agent</text><text x="25.05" y="110.22" class="h">┃</text><path class="u" d="M26.052 108.55h18v2.171h-18z"/><text x="26.052" y="110.22" class="v">Model</text><text x="44.088" y="110.22" class="h">┃</text><path class="u" d="M45.09 108.55h10v2.171h-10z"/><text x="45.09" y="110.22" class="v">Position</text><text x="55.11" y="110.22" class="h">┃</text><path class="u" d="M56.112 108.55h16v2.171h-16z"/><text x="56.112" y="110.22" class="v">Confidence</text><text x="72.144" y="110.22" class="h">┃</text><text x="7.014" y="112.391" class="h">┡━━━━━━━━━━━━━━━━━╇━━━━━━━━━━━━━━━━━━╇━━━━━━━━━━╇━━━━━━━━━━━━━━━━┩</text><text x="7.014" y="114.562" class="h">│</text><text x="9.018" y="114.562" class="m">Visionary</text><text x="25.05" y="114.562" class="h">│</text><text x="27.054" y="114.562" class="r">glm-4.7</text><text x="44.088" y="114.562" class="h">│</text><text x="46.092" y="114.562" class="k">APPROVE</text><text x="55.11" y="114.562" class="h">│</text><text x="57.114" y="114.562" class="i">████████░░</text><text x="68.136" y="114.562" class="f">88%</text><text x="72.144" y="114.562" class="h">│</text><use xlink:href="#4" y="115.063"/><text x="7.014" y="118.904" class="h">│</text><text x="9.018" y="118.904" class="m">DevilsAdvocate</text><text x="25.05" y="118.904" class="h">│</text><text x="27.054" y="118.904" class="g">kimi-k2.5</text><text x="44.088" y="118.904" class="h">│</text><text x="47.094" y="118.904" class="s">REJECT</text><text x="55.11" y="118.904" class="h">│</text><text x="57.114" y="118.904" class="i">███████░░░</text><text x="68.136" y="118.904" class="f">76%</text><text x="72.144" y="118.904" class="h">│</text><use xlink:href="#4" y="119.405"/><text x="7.014" y="123.246" class="h">│</text><text x="9.018" y="123.246" class="m">GrowthHacker</text><text x="25.05" y="123.246" class="h">│</text><text x="27.054" y="123.246" class="o">MiniMax-M2.5</text><text x="44.088" y="123.246" class="h">│</text><text x="46.092" y="123.246" class="k">APPROVE</text><text x="55.11" y="123.246" class="h">│</text><text x="57.114" y="123.246" class="i">███████░░░</text><text x="68.136" y="123.246" class="f">72%</text><text x="72.144" y="123.246" class="h">│</text><use xlink:href="#4" y="123.747"/><text x="7.014" y="127.588" class="h">│</text><text x="9.018" y="127.588" class="m">NumbersCruncher</text><text x="25.05" y="127.588" class="h">│</text><text x="27.054" y="127.588" class="i">qwen3-coder-plus</text><text x="44.088" y="127.588" class="h">│</text><text x="46.092" y="127.588" class="p">NEUTRAL</text><text x="55.11" y="127.588" class="h">│</text><text x="57.114" y="127.588" class="w">████░░░░░░</text><text x="68.136" y="127.588" class="f">41%</text><text x="72.144" y="127.588" class="h">│</text><use xlink:href="#4" y="128.089"/><text x="7.014" y="131.93" class="h">│</text><text x="9.018" y="131.93" class="m">Pragmatist</text><text x="25.05" y="131.93" class="h">│</text><text x="27.054" y="131.93" class="h">qwen3.5-plus</text><text x="44.088" y="131.93" class="h">│</text><text x="46.092" y="131.93" class="k">APPROVE</text><text x="55.11" y="131.93" class="h">│</text><text x="57.114" y="131.93" class="o">██████░░░░</text><text x="68.136" y="131.93" class="f">65%</text><text x="72.144" y="131.93" class="h">│</text><text x="7.014" y="134.101" class="h">└─────────────────┴──────────────────┴──────────┴────────────────┘</text><path fill="#a8cc8c" d="M18.036 136.773h14v2.171h-14z"/><text x="18.036" y="138.443" class="l">APPROVE: 3</text><path fill="#e88388" d="M34.068 136.773h13v2.171h-13z"/><text x="34.068" y="138.443" class="l">REJECT: 1</text><path fill="#d75f00" d="M49.098 136.773h12v2.171h-12z"/><text x="49.098" y="138.443" class="l">NEUTRAL: 1</text><text y="142.785" class="i">╭──────────────────────────────</text><text x="32.064" y="142.785" class="l">AGENCY</text><text x="39.078" y="142.785" class="l">DECISION</text><text x="48.096" y="142.785" class="i">───────────────────────────────╮</text><use xlink:href="#5" y="143.286"/><text y="147.127" class="i">│</text><text x="31.062" y="147.127" class="p">MAJORITY:</text><text x="41.082" y="147.127" class="k">APPROVE</text><text x="79.158" y="147.127" class="i">│</text><use xlink:href="#5" y="147.628"/><text y="151.469" class="i">╰──────────────────────────────────────────────────────────────────────────────╯</text><text y="155.811" class="f">╭──────────────────────────────────</text><text x="36.072" y="155.811" class="q">Summary</text><text x="44.088" y="155.811" class="f">───────────────────────────────────╮</text><text y="157.982" class="f">│</text><text x="3.006" y="157.982" class="f">Strategy</text><text x="12.024" y="157.982" class="f">department</text><text x="23.046" y="157.982" class="f">recommends</text><text x="34.068" y="157.982" class="f">pivot</text><text x="40.08" y="157.982" class="f">with</text><text x="45.09" y="157.982" class="f">conditions.</text><text x="57.114" y="157.982" class="f">3</text><text x="59.118" y="157.982" class="f">approve</text><text x="79.158" y="157.982" class="f">│</text><text y="160.153" class="f">│</text><text x="3.006" y="160.153" class="f">(Visionary,</text><text x="15.03" y="160.153" class="f">GrowthHacker,</text><text x="29.058" y="160.153" class="f">Pragmatist),</text><text x="42.084" y="160.153" class="f">1</text><text x="44.088" y="160.153" class="f">rejects</text><text x="52.104" y="160.153" class="f">(DevilsAdvocate</text><text x="68.136" y="160.153" class="f">citing</text><text x="79.158" y="160.153" class="f">│</text><text y="162.324" class="f">│</text><text x="3.006" y="162.324" class="f">execution</text><text x="13.026" y="162.324" class="f">risk),</text><text x="20.04" y="162.324" class="f">1</text><text x="22.044" y="162.324" class="f">neutral</text><text x="30.06" y="162.324" class="f">(NumbersCruncher</text><text x="47.094" y="162.324" class="f">wanting</text><text x="55.11" y="162.324" class="f">data).</text><text x="62.124" y="162.324" class="f">Recommended:</text><text x="79.158" y="162.324" class="f">│</text><text y="164.495" class="f">│</text><text x="3.006" y="164.495" class="f">90-day</text><text x="10.02" y="164.495" class="f">hybrid</text><text x="17.034" y="164.495" class="f">pilot</text><text x="23.046" y="164.495" class="f">before</text><text x="30.06" y="164.495" class="f">full</text><text x="35.07" y="164.495" class="f">commitment.</text><text x="79.158" y="164.495" class="f">│</text><use xlink:href="#1" y="164.996"/><text y="171.008" class="s">Dissenting</text><text x="11.022" y="171.008" class="s">Views:</text><text x="2.004" y="173.179" class="w">&gt;</text><text x="4.008" y="173.179" class="f">DevilsAdvocate:</text><text x="20.04" y="173.179" class="f">No</text><text x="23.046" y="173.179" class="f">enterprise</text><text x="34.068" y="173.179" class="f">sales</text><text x="40.08" y="173.179" class="f">infrastructure</text><text x="55.11" y="173.179" class="f">exists.</text><text x="63.126" y="173.179" class="f">Pivoting</text><text x="72.144" y="173.179" class="f">without</text><text y="175.35" class="f">SOC</text><text x="4.008" y="175.35" class="m">2</text><text x="5.01" y="175.35" class="f">,</text><text x="7.014" y="175.35" class="f">SLAs,</text><text x="13.026" y="175.35" class="f">or</text><text x="16.032" y="175.35" class="f">a</text><text x="18.036" y="175.35" class="f">sales</text><text x="24.048" y="175.35" class="f">team</text><text x="29.058" y="175.35" class="f">is</text><text x="32.064" y="175.35" class="f">a</text><text x="34.068" y="175.35" class="f">recipe</text><text x="41.082" y="175.35" class="f">for</text><text x="45.09" y="175.35" class="f">burning</text><text x="53.106" y="175.35" class="f">remaining</text><text x="63.126" y="175.35" class="f">runway.</text><text x="2.004" y="177.521" class="w">&gt;</text><text x="4.008" y="177.521" class="f">NumbersCruncher:</text><text x="21.042" y="177.521" class="f">Revenue</text><text x="29.058" y="177.521" class="f">projections</text><text x="41.082" y="177.521" class="f">based</text><text x="47.094" y="177.521" class="f">on</text><text x="50.1" y="177.521" class="m">3</text><text x="52.104" y="177.521" class="f">inbound</text><text x="60.12" y="177.521" class="f">inquiries</text><text x="70.14" y="177.521" class="f">are</text><text y="179.692" class="f">statistically</text><text x="14.028" y="179.692" class="f">meaningless.</text><text x="27.054" y="179.692" class="f">Need</text><text x="32.064" y="179.692" class="f">validated</text><text x="42.084" y="179.692" class="f">sales</text><text x="48.096" y="179.692" class="f">cycle</text><text x="54.108" y="179.692" class="f">and</text><text x="58.116" y="179.692" class="f">churn</text><text x="64.128" y="179.692" class="f">data.</text><text y="184.034" class="f">Confidence:</text><text x="12.024" y="184.034" class="m">74</text><text x="14.028" y="184.034" class="f">%</text><text x="16.032" y="184.034" class="f">|</text><text x="18.036" y="184.034" class="f">Duration:</text><text x="28.056" y="184.034" class="m">4.</text><text x="30.06" y="184.034" class="f">1s</text><text x="33.066" y="184.034" class="f">|</text><text x="35.07" y="184.034" class="f">Models:</text><text x="43.086" y="184.034" class="f">glm-</text><text x="47.094" y="184.034" class="m">4.7</text><text x="50.1" y="184.034" class="f">,</text><text x="52.104" y="184.034" class="f">kimi-k2.</text><text x="60.12" y="184.034" class="m">5</text><text x="61.122" y="184.034" class="f">,</text><text x="63.126" y="184.034" class="f">MiniMax-M2.</text><text x="74.148" y="184.034" class="m">5</text><text x="75.15" y="184.034" class="f">,</text><text y="186.205" class="f">qwen3-coder-plus,</text><text x="18.036" y="186.205" class="f">qwen3.</text><text x="24.048" y="186.205" class="m">5</text><text x="25.05" y="186.205" class="f">-plus</text><text y="192.718" class="f">Saved</text><text x="6.012" y="192.718" class="f">ANSI</text><text x="11.022" y="192.718" class="f">output</text><text x="18.036" y="192.718" class="f">to</text><text x="21.042" y="192.718" class="f">/root/swarm-agency/demo/demo_output_ansi.txt</text><text y="194.889" class="f">Saved</text><text x="6.012" y="194.889" class="f">plain</text><text x="12.024" y="194.889" class="f">text</text><text x="17.034" y="194.889" class="f">output</text><text x="24.048" y="194.889" class="f">to</text><text x="27.054" y="194.889" class="f">/root/swarm-agency/demo/demo_output.txt</text></svg></svg></g></svg></svg>